<svg xmlns="http://www.w3.org/2000/svg" xmlns:xlink="http://www.w3.org/1999/xlink" viewBox="0 0 290.58 275.11"><defs><style>.cls-1{fill:url(#New_Gradient_Swatch_1);}.cls-2{isolation:isolate;}.cls-3{fill:url(#linear-gradient);}.cls-4{fill:url(#linear-gradient-2);}.cls-5{fill:url(#linear-gradient-3);}.cls-12,.cls-153,.cls-19,.cls-20,.cls-21,.cls-22,.cls-23,.cls-6,.cls-8{mix-blend-mode:screen;}.cls-6{fill:url(#Radial_Gradient_1);}.cls-7{fill:url(#linear-gradient-4);}.cls-130,.cls-8{opacity:0.3;}.cls-8{fill:url(#linear-gradient-5);}.cls-9{fill:url(#linear-gradient-6);}.cls-10{fill:url(#linear-gradient-7);}.cls-11{fill:#bcbec0;}.cls-11,.cls-130,.cls-148{mix-blend-mode:multiply;}.cls-12{fill:url(#Radial_Gradient_1-2);}.cls-103,.cls-13,.cls-14,.cls-143,.cls-15,.cls-16{opacity:0.8;}.cls-13{fill:url(#New_Gradient_Swatch_copy_26);}.cls-14{fill:url(#New_Gradient_Swatch_copy_26-2);}.cls-15{fill:url(#New_Gradient_Swatch_copy_26-3);}.cls-16{fill:url(#New_Gradient_Swatch_copy_26-4);}.cls-17{fill:#b086cc;}.cls-104,.cls-152,.cls-158,.cls-18{opacity:0.9;}.cls-18{fill:url(#New_Gradient_Swatch_copy_8);}.cls-19{fill:url(#Radial_Gradient_1-3);}.cls-20{fill:url(#Radial_Gradient_1-4);}.cls-21{fill:url(#Radial_Gradient_1-5);}.cls-22{fill:url(#Radial_Gradient_1-6);}.cls-23{fill:url(#Radial_Gradient_1-7);}.cls-102,.cls-24{opacity:0.7;}.cls-104,.cls-144,.cls-24{mix-blend-mode:color-dodge;}.cls-25{fill:url(#radial-gradient);}.cls-26{fill:url(#radial-gradient-2);}.cls-27{fill:url(#radial-gradient-3);}.cls-28{fill:url(#radial-gradient-4);}.cls-29{fill:url(#radial-gradient-5);}.cls-30{fill:url(#radial-gradient-6);}.cls-31{fill:url(#radial-gradient-7);}.cls-32{fill:url(#radial-gradient-8);}.cls-33{fill:url(#radial-gradient-9);}.cls-34{fill:url(#radial-gradient-10);}.cls-35{fill:url(#radial-gradient-11);}.cls-36{fill:url(#radial-gradient-12);}.cls-37{fill:url(#radial-gradient-13);}.cls-38{fill:url(#radial-gradient-14);}.cls-39{fill:url(#radial-gradient-15);}.cls-40{fill:url(#radial-gradient-16);}.cls-41{fill:url(#radial-gradient-18);}.cls-42{fill:url(#radial-gradient-19);}.cls-43{fill:url(#radial-gradient-20);}.cls-44{fill:url(#radial-gradient-21);}.cls-45{fill:url(#radial-gradient-22);}.cls-46{fill:url(#radial-gradient-23);}.cls-47{fill:url(#radial-gradient-24);}.cls-48{fill:url(#radial-gradient-25);}.cls-49{fill:url(#radial-gradient-26);}.cls-50{fill:url(#radial-gradient-27);}.cls-51{fill:url(#radial-gradient-28);}.cls-52{fill:url(#radial-gradient-29);}.cls-53{fill:url(#radial-gradient-30);}.cls-54{fill:url(#radial-gradient-31);}.cls-55{fill:url(#radial-gradient-32);}.cls-56{fill:url(#radial-gradient-33);}.cls-57{fill:url(#radial-gradient-34);}.cls-58{fill:url(#radial-gradient-35);}.cls-59{fill:url(#radial-gradient-36);}.cls-60{fill:url(#radial-gradient-37);}.cls-61{fill:url(#radial-gradient-38);}.cls-62{fill:url(#radial-gradient-39);}.cls-63{fill:url(#radial-gradient-40);}.cls-64{fill:url(#radial-gradient-41);}.cls-65{fill:url(#radial-gradient-42);}.cls-66{fill:url(#radial-gradient-43);}.cls-67{fill:url(#radial-gradient-44);}.cls-68{fill:url(#radial-gradient-45);}.cls-69{fill:url(#radial-gradient-46);}.cls-70{fill:url(#radial-gradient-47);}.cls-71{fill:url(#radial-gradient-48);}.cls-72{fill:url(#radial-gradient-49);}.cls-73{fill:url(#radial-gradient-50);}.cls-74{fill:url(#radial-gradient-51);}.cls-75{fill:url(#radial-gradient-52);}.cls-76{fill:url(#radial-gradient-53);}.cls-77{fill:url(#radial-gradient-54);}.cls-78{fill:url(#radial-gradient-55);}.cls-79{fill:url(#radial-gradient-56);}.cls-80{fill:url(#radial-gradient-57);}.cls-81{fill:url(#radial-gradient-58);}.cls-82{fill:url(#radial-gradient-59);}.cls-83{fill:url(#radial-gradient-60);}.cls-84{fill:url(#radial-gradient-61);}.cls-85{fill:url(#radial-gradient-62);}.cls-86{fill:url(#radial-gradient-63);}.cls-87{fill:url(#radial-gradient-64);}.cls-88{fill:url(#radial-gradient-65);}.cls-89{fill:url(#radial-gradient-66);}.cls-90{fill:url(#radial-gradient-67);}.cls-91{fill:url(#radial-gradient-68);}.cls-92{fill:url(#radial-gradient-69);}.cls-93{fill:url(#radial-gradient-70);}.cls-94{fill:url(#radial-gradient-71);}.cls-95{fill:url(#radial-gradient-72);}.cls-96{fill:url(#radial-gradient-73);}.cls-97{fill:url(#radial-gradient-74);}.cls-98{fill:url(#radial-gradient-75);}.cls-99{fill:url(#radial-gradient-76);}.cls-100{fill:url(#radial-gradient-77);}.cls-101{mask:url(#mask);}.cls-103{fill:url(#New_Gradient_Swatch_copy_26-5);}.cls-105{fill:url(#linear-gradient-8);}.cls-106{fill:url(#linear-gradient-9);}.cls-107{fill:url(#New_Gradient_Swatch_copy_8-2);}.cls-108{fill:url(#linear-gradient-10);}.cls-109{fill:url(#linear-gradient-11);}.cls-110{fill:url(#linear-gradient-12);}.cls-111{fill:url(#New_Gradient_Swatch_copy_9);}.cls-112{fill:url(#linear-gradient-13);}.cls-113{fill:url(#linear-gradient-14);}.cls-114{fill:url(#linear-gradient-15);}.cls-115{fill:url(#New_Gradient_Swatch_copy_8-3);}.cls-116{fill:url(#linear-gradient-16);}.cls-117{fill:url(#linear-gradient-17);}.cls-118{fill:url(#linear-gradient-18);}.cls-119{fill:url(#linear-gradient-19);}.cls-120{fill:url(#linear-gradient-20);}.cls-121{fill:url(#New_Gradient_Swatch_copy_8-4);}.cls-122{fill:url(#linear-gradient-21);}.cls-123{fill:url(#linear-gradient-22);}.cls-124{fill:url(#linear-gradient-23);}.cls-125{fill:url(#New_Gradient_Swatch_copy_9-2);}.cls-126{fill:url(#New_Gradient_Swatch_copy_9-3);}.cls-127{fill:url(#New_Gradient_Swatch_copy_9-4);}.cls-128{fill:url(#linear-gradient-24);}.cls-129{fill:url(#New_Gradient_Swatch_copy_9-5);}.cls-131{opacity:0;fill:url(#linear-gradient-25);}.cls-132{opacity:0.09;fill:url(#linear-gradient-26);}.cls-133{opacity:0.18;fill:url(#linear-gradient-27);}.cls-134{opacity:0.27;fill:url(#linear-gradient-28);}.cls-135{opacity:0.36;fill:url(#linear-gradient-29);}.cls-136{opacity:0.45;fill:url(#linear-gradient-30);}.cls-137{opacity:0.55;fill:url(#linear-gradient-31);}.cls-138{opacity:0.64;fill:url(#linear-gradient-32);}.cls-139{opacity:0.73;fill:url(#linear-gradient-33);}.cls-140{opacity:0.82;fill:url(#linear-gradient-34);}.cls-141{opacity:0.91;fill:url(#linear-gradient-35);}.cls-142{fill:url(#linear-gradient-36);}.cls-143{fill:url(#New_Gradient_Swatch_copy_7);}.cls-144{fill:url(#radial-gradient-78);}.cls-145,.cls-146,.cls-147,.cls-149,.cls-150,.cls-151{opacity:0.6;}.cls-145{fill:url(#New_Gradient_Swatch_copy_26-6);}.cls-146{fill:url(#New_Gradient_Swatch_copy_26-7);}.cls-147{fill:url(#New_Gradient_Swatch_copy_26-8);}.cls-148{opacity:0.5;}.cls-149{fill:url(#New_Gradient_Swatch_copy_26-9);}.cls-150{fill:url(#New_Gradient_Swatch_copy_26-10);}.cls-151{fill:url(#New_Gradient_Swatch_copy_26-11);}.cls-152{fill:url(#New_Gradient_Swatch_copy_8-5);}.cls-154{fill:url(#New_Gradient_Swatch_copy_8-6);}.cls-155{fill:url(#New_Gradient_Swatch_copy_8-7);}.cls-156{fill:url(#New_Gradient_Swatch_copy_8-8);}.cls-157{fill:url(#New_Gradient_Swatch_copy_8-9);}.cls-159{fill:url(#New_Gradient_Swatch_copy_8-10);}</style><linearGradient id="New_Gradient_Swatch_1" x1="109.7" y1="184.72" x2="86.66" y2="223.72" gradientUnits="userSpaceOnUse"><stop offset="0" stop-color="#fff"/><stop offset="1"/></linearGradient><linearGradient id="linear-gradient" x1="14.11" y1="204.08" x2="269.86" y2="204.08" gradientUnits="userSpaceOnUse"><stop offset="0.06" stop-color="#200041"/><stop offset="0.26" stop-color="#210243"/><stop offset="0.36" stop-color="#25084b"/><stop offset="0.43" stop-color="#2c1358"/><stop offset="0.47" stop-color="#311b61"/><stop offset="0.48" stop-color="#351f65"/><stop offset="0.5" stop-color="#422c73"/><stop offset="0.51" stop-color="#584188"/><stop offset="0.52" stop-color="#765fa7"/><stop offset="0.53" stop-color="#8770b8"/><stop offset="0.54" stop-color="#7e67ae"/><stop offset="0.56" stop-color="#5c468d"/><stop offset="0.59" stop-color="#442e75"/><stop offset="0.61" stop-color="#362066"/><stop offset="0.63" stop-color="#311b61"/><stop offset="0.67" stop-color="#2a1155"/><stop offset="0.75" stop-color="#230446"/><stop offset="0.81" stop-color="#200041"/><stop offset="1" stop-color="#200041"/></linearGradient><linearGradient id="linear-gradient-2" y1="197.38" x2="371.24" y2="197.38" gradientUnits="userSpaceOnUse"><stop offset="0" stop-color="#311b61"/><stop offset="0.2" stop-color="#290f52"/><stop offset="0.49" stop-color="#200041"/><stop offset="1" stop-color="#0f001f"/></linearGradient><linearGradient id="linear-gradient-3" x1="2.75" y1="197.38" x2="243.29" y2="197.38" gradientUnits="userSpaceOnUse"><stop offset="0" stop-color="#3d065f"/><stop offset="1" stop-color="#5f27bd"/></linearGradient><radialGradient id="Radial_Gradient_1" cx="151.68" cy="213.93" r="92.34" xlink:href="#New_Gradient_Swatch_1"/><linearGradient id="linear-gradient-4" x1="-658.71" y1="375.19" x2="-770.86" y2="290.41" gradientTransform="matrix(0.87, 0.5, -1.5, 0.29, 1255.33, 447.26)" gradientUnits="userSpaceOnUse"><stop offset="0" stop-color="#3d065f"/><stop offset="1" stop-color="#12054e"/><stop offset="1" stop-color="#10054d"/></linearGradient><linearGradient id="linear-gradient-5" x1="104.5" y1="140.84" x2="167.32" y2="239.44" gradientUnits="userSpaceOnUse"><stop offset="0.06" stop-color="#9f79b8"/><stop offset="0.25" stop-color="#a17bba"/><stop offset="0.35" stop-color="#a883c0"/><stop offset="0.42" stop-color="#b490cc"/><stop offset="0.48" stop-color="#c5a3dc"/><stop offset="0.54" stop-color="#dbbbf0"/><stop offset="0.56" stop-color="#e6c6fa"/><stop offset="0.6" stop-color="#d6b6f1"/><stop offset="0.69" stop-color="#b595dd"/><stop offset="0.77" stop-color="#9d7dcf"/><stop offset="0.85" stop-color="#8e6ec6"/><stop offset="0.92" stop-color="#8969c3"/></linearGradient><linearGradient id="linear-gradient-6" x1="55.95" y1="0.39" x2="253.62" y2="174.39" xlink:href="#linear-gradient-2"/><linearGradient id="linear-gradient-7" x1="1220.03" y1="197.92" x2="1097.89" y2="8.57" gradientTransform="translate(-985.58)" gradientUnits="userSpaceOnUse"><stop offset="0" stop-color="#2a0c5c"/><stop offset="0.69" stop-color="#5f27bd"/><stop offset="1" stop-color="#b4299a"/></linearGradient><radialGradient id="Radial_Gradient_1-2" cx="1231.86" cy="89.19" r="21.38" gradientTransform="translate(-985.58)" xlink:href="#New_Gradient_Swatch_1"/><linearGradient id="New_Gradient_Swatch_copy_26" x1="237.24" y1="182.37" x2="98.24" y2="-14.62" gradientUnits="userSpaceOnUse"><stop offset="0.03" stop-color="#7c1dc9"/><stop offset="0.21" stop-color="#6e41d2"/><stop offset="0.62" stop-color="#4c9be8"/><stop offset="1" stop-color="#2af6ff"/></linearGradient><linearGradient id="New_Gradient_Swatch_copy_26-2" x1="211.13" y1="200.8" x2="72.13" y2="3.8" xlink:href="#New_Gradient_Swatch_copy_26"/><linearGradient id="New_Gradient_Swatch_copy_26-3" x1="253.83" y1="170.67" x2="114.83" y2="-26.33" xlink:href="#New_Gradient_Swatch_copy_26"/><linearGradient id="New_Gradient_Swatch_copy_26-4" x1="206.84" y1="203.82" x2="67.84" y2="6.82" xlink:href="#New_Gradient_Swatch_copy_26"/><linearGradient id="New_Gradient_Swatch_copy_8" x1="236.96" y1="182.58" x2="97.96" y2="-14.42" gradientUnits="userSpaceOnUse"><stop offset="0.04" stop-color="#ffa98c"/><stop offset="0.32" stop-color="#ffb892"/><stop offset="0.86" stop-color="#fee1a3"/><stop offset="1" stop-color="#feeca8"/></linearGradient><radialGradient id="Radial_Gradient_1-3" cx="178.44" cy="99.04" r="19.88" xlink:href="#New_Gradient_Swatch_1"/><radialGradient id="Radial_Gradient_1-4" cx="112.78" cy="61.41" r="19.88" xlink:href="#New_Gradient_Swatch_1"/><radialGradient id="Radial_Gradient_1-5" cx="148.01" cy="19.82" r="17.89" xlink:href="#New_Gradient_Swatch_1"/><radialGradient id="Radial_Gradient_1-6" cx="146.39" cy="117.26" r="17.89" xlink:href="#New_Gradient_Swatch_1"/><radialGradient id="Radial_Gradient_1-7" cx="146.85" cy="52.6" r="16.5" xlink:href="#New_Gradient_Swatch_1"/><radialGradient id="radial-gradient" cx="134.89" cy="50.04" r="155.61" gradientUnits="userSpaceOnUse"><stop offset="0" stop-color="#7c1dc9"/><stop offset="0.06" stop-color="#701ab5"/><stop offset="0.24" stop-color="#4e127f"/><stop offset="0.42" stop-color="#320c51"/><stop offset="0.59" stop-color="#1c072e"/><stop offset="0.74" stop-color="#0d0315"/><stop offset="0.89" stop-color="#030105"/><stop offset="1"/></radialGradient><radialGradient id="radial-gradient-2" cx="156.56" cy="59.04" r="155.61" xlink:href="#radial-gradient"/><radialGradient id="radial-gradient-3" cx="134.89" cy="50.04" r="155.61" xlink:href="#radial-gradient"/><radialGradient id="radial-gradient-4" cx="134.89" cy="50.04" r="155.61" xlink:href="#radial-gradient"/><radialGradient id="radial-gradient-5" cx="134.9" cy="50.04" r="155.61" xlink:href="#radial-gradient"/><radialGradient id="radial-gradient-6" cx="134.89" cy="50.04" r="155.61" xlink:href="#radial-gradient"/><radialGradient id="radial-gradient-7" cx="134.9" cy="50.04" r="155.61" xlink:href="#radial-gradient"/><radialGradient id="radial-gradient-8" cx="134.89" cy="50.04" r="155.61" xlink:href="#radial-gradient"/><radialGradient id="radial-gradient-9" cx="134.89" cy="50.04" r="155.61" xlink:href="#radial-gradient"/><radialGradient id="radial-gradient-10" cx="134.89" cy="50.04" r="155.61" xlink:href="#radial-gradient"/><radialGradient id="radial-gradient-11" cx="134.89" cy="50.04" r="155.61" xlink:href="#radial-gradient"/><radialGradient id="radial-gradient-12" cx="134.89" cy="50.04" r="155.61" xlink:href="#radial-gradient"/><radialGradient id="radial-gradient-13" cx="134.89" cy="50.04" r="155.61" xlink:href="#radial-gradient"/><radialGradient id="radial-gradient-14" cx="134.89" cy="50.04" r="155.61" xlink:href="#radial-gradient"/><radialGradient id="radial-gradient-15" cx="134.89" cy="50.04" r="155.61" xlink:href="#radial-gradient"/><radialGradient id="radial-gradient-16" cx="134.89" cy="50.04" r="155.61" xlink:href="#radial-gradient"/><radialGradient id="radial-gradient-18" cx="134.89" cy="50.04" r="155.61" xlink:href="#radial-gradient"/><radialGradient id="radial-gradient-19" cx="134.89" cy="50.04" r="155.61" xlink:href="#radial-gradient"/><radialGradient id="radial-gradient-20" cx="134.89" cy="50.04" r="155.61" xlink:href="#radial-gradient"/><radialGradient id="radial-gradient-21" cx="134.89" cy="50.04" r="155.61" xlink:href="#radial-gradient"/><radialGradient id="radial-gradient-22" cx="134.9" cy="50.04" r="155.61" xlink:href="#radial-gradient"/><radialGradient id="radial-gradient-23" cx="134.9" cy="50.04" r="155.61" xlink:href="#radial-gradient"/><radialGradient id="radial-gradient-24" cx="134.9" cy="50.04" r="155.61" xlink:href="#radial-gradient"/><radialGradient id="radial-gradient-25" cx="134.89" cy="50.04" r="155.61" xlink:href="#radial-gradient"/><radialGradient id="radial-gradient-26" cx="134.89" cy="50.04" r="155.61" xlink:href="#radial-gradient"/><radialGradient id="radial-gradient-27" cx="134.89" cy="50.04" r="155.61" xlink:href="#radial-gradient"/><radialGradient id="radial-gradient-28" cx="134.9" cy="50.04" r="155.61" xlink:href="#radial-gradient"/><radialGradient id="radial-gradient-29" cx="108.73" cy="51.04" r="82.84" xlink:href="#radial-gradient"/><radialGradient id="radial-gradient-30" cx="108.73" cy="51.04" r="82.84" xlink:href="#radial-gradient"/><radialGradient id="radial-gradient-31" cx="108.73" cy="51.04" r="82.84" xlink:href="#radial-gradient"/><radialGradient id="radial-gradient-32" cx="108.73" cy="51.04" r="82.84" xlink:href="#radial-gradient"/><radialGradient id="radial-gradient-33" cx="108.73" cy="51.04" r="82.84" xlink:href="#radial-gradient"/><radialGradient id="radial-gradient-34" cx="108.73" cy="51.04" r="82.84" xlink:href="#radial-gradient"/><radialGradient id="radial-gradient-35" cx="108.73" cy="51.04" r="82.84" xlink:href="#radial-gradient"/><radialGradient id="radial-gradient-36" cx="77.73" cy="17.71" r="155.61" xlink:href="#radial-gradient"/><radialGradient id="radial-gradient-37" cx="82.56" cy="19.87" r="155.61" xlink:href="#radial-gradient"/><radialGradient id="radial-gradient-38" cx="77.73" cy="17.71" r="155.61" xlink:href="#radial-gradient"/><radialGradient id="radial-gradient-39" cx="77.73" cy="17.71" r="155.61" xlink:href="#radial-gradient"/><radialGradient id="radial-gradient-40" cx="77.73" cy="17.71" r="155.61" xlink:href="#radial-gradient"/><radialGradient id="radial-gradient-41" cx="77.73" cy="17.71" r="155.61" xlink:href="#radial-gradient"/><radialGradient id="radial-gradient-42" cx="77.73" cy="17.71" r="155.61" xlink:href="#radial-gradient"/><radialGradient id="radial-gradient-43" cx="82.39" cy="22.71" r="155.61" xlink:href="#radial-gradient"/><radialGradient id="radial-gradient-44" cx="77.73" cy="17.71" r="155.61" xlink:href="#radial-gradient"/><radialGradient id="radial-gradient-45" cx="77.73" cy="17.71" r="155.61" xlink:href="#radial-gradient"/><radialGradient id="radial-gradient-46" cx="77.73" cy="17.71" r="155.61" xlink:href="#radial-gradient"/><radialGradient id="radial-gradient-47" cx="77.73" cy="17.71" r="155.61" xlink:href="#radial-gradient"/><radialGradient id="radial-gradient-48" cx="77.73" cy="17.71" r="155.61" xlink:href="#radial-gradient"/><radialGradient id="radial-gradient-49" cx="77.73" cy="17.71" r="155.61" xlink:href="#radial-gradient"/><radialGradient id="radial-gradient-50" cx="134.73" cy="44.87" r="106.76" xlink:href="#radial-gradient"/><radialGradient id="radial-gradient-51" cx="139.06" cy="62.04" r="106.76" xlink:href="#radial-gradient"/><radialGradient id="radial-gradient-52" cx="134.56" cy="47.21" r="106.76" xlink:href="#radial-gradient"/><radialGradient id="radial-gradient-53" cx="139.06" cy="62.04" r="106.76" xlink:href="#radial-gradient"/><radialGradient id="radial-gradient-54" cx="139.06" cy="62.04" r="106.76" xlink:href="#radial-gradient"/><radialGradient id="radial-gradient-55" cx="139.06" cy="62.04" r="106.76" xlink:href="#radial-gradient"/><radialGradient id="radial-gradient-56" cx="139.06" cy="62.04" r="106.76" xlink:href="#radial-gradient"/><radialGradient id="radial-gradient-57" cx="132.34" cy="58.57" r="153.74" xlink:href="#radial-gradient"/><radialGradient id="radial-gradient-58" cx="125.18" cy="37.4" r="153.74" xlink:href="#radial-gradient"/><radialGradient id="radial-gradient-59" cx="132.34" cy="58.57" r="153.74" xlink:href="#radial-gradient"/><radialGradient id="radial-gradient-60" cx="132.34" cy="58.57" r="153.74" xlink:href="#radial-gradient"/><radialGradient id="radial-gradient-61" cx="132.34" cy="58.57" r="153.74" xlink:href="#radial-gradient"/><radialGradient id="radial-gradient-62" cx="132.34" cy="58.57" r="153.74" xlink:href="#radial-gradient"/><radialGradient id="radial-gradient-63" cx="132.34" cy="58.57" r="153.74" xlink:href="#radial-gradient"/><radialGradient id="radial-gradient-64" cx="132.34" cy="58.57" r="153.74" xlink:href="#radial-gradient"/><radialGradient id="radial-gradient-65" cx="149.18" cy="59.9" r="153.74" xlink:href="#radial-gradient"/><radialGradient id="radial-gradient-66" cx="132.34" cy="58.57" r="153.74" xlink:href="#radial-gradient"/><radialGradient id="radial-gradient-67" cx="132.34" cy="58.57" r="153.74" xlink:href="#radial-gradient"/><radialGradient id="radial-gradient-68" cx="132.34" cy="58.57" r="153.74" xlink:href="#radial-gradient"/><radialGradient id="radial-gradient-69" cx="132.34" cy="58.57" r="153.74" xlink:href="#radial-gradient"/><radialGradient id="radial-gradient-70" cx="132.34" cy="58.57" r="153.74" xlink:href="#radial-gradient"/><radialGradient id="radial-gradient-71" cx="132.34" cy="58.57" r="153.74" xlink:href="#radial-gradient"/><radialGradient id="radial-gradient-72" cx="132.34" cy="58.57" r="153.74" xlink:href="#radial-gradient"/><radialGradient id="radial-gradient-73" cx="165.34" cy="69.73" r="153.74" xlink:href="#radial-gradient"/><radialGradient id="radial-gradient-74" cx="153.84" cy="72.57" r="153.74" xlink:href="#radial-gradient"/><radialGradient id="radial-gradient-75" cx="132.34" cy="58.57" r="153.74" xlink:href="#radial-gradient"/><radialGradient id="radial-gradient-76" cx="132.34" cy="58.57" r="153.74" xlink:href="#radial-gradient"/><radialGradient id="radial-gradient-77" cx="132.34" cy="58.57" r="153.74" xlink:href="#radial-gradient"/><mask id="mask" x="35.89" y="174.11" width="97.33" height="106.33" maskUnits="userSpaceOnUse"><rect class="cls-1" x="35.89" y="174.11" width="97.33" height="106.33"/></mask><linearGradient id="New_Gradient_Swatch_copy_26-5" x1="122.02" y1="206.48" x2="-71.36" y2="300.18" xlink:href="#New_Gradient_Swatch_copy_26"/><linearGradient id="linear-gradient-8" x1="87.99" y1="1329.17" x2="92.4" y2="1329.17" gradientTransform="matrix(1, 1.16, 0, -1, 0, 1452.19)" xlink:href="#linear-gradient-3"/><linearGradient id="linear-gradient-9" x1="83.78" y1="1345.62" x2="91.04" y2="1345.62" gradientTransform="matrix(1, 1.16, 0, -1, 0, 1452.19)" xlink:href="#linear-gradient-3"/><linearGradient id="New_Gradient_Swatch_copy_8-2" x1="82.55" y1="1331.76" x2="90.65" y2="1331.76" gradientTransform="matrix(1, 1.16, 0, -1, 0, 1452.19)" xlink:href="#New_Gradient_Swatch_copy_8"/><linearGradient id="linear-gradient-10" x1="82.14" y1="1339.17" x2="86.26" y2="1339.17" gradientTransform="matrix(1, 1.16, 0, -1, 0, 1452.19)" xlink:href="#linear-gradient-3"/><linearGradient id="linear-gradient-11" x1="69.21" y1="1337.15" x2="75.91" y2="1337.15" gradientTransform="matrix(1, 1.16, 0, -1, 0, 1452.19)" xlink:href="#linear-gradient-3"/><linearGradient id="linear-gradient-12" x1="88.41" y1="1342.46" x2="91.27" y2="1342.46" gradientTransform="matrix(1, 1.16, 0, -1, 0, 1452.19)" xlink:href="#linear-gradient-3"/><linearGradient id="New_Gradient_Swatch_copy_9" x1="85.9" y1="1336.76" x2="89.31" y2="1336.76" gradientTransform="matrix(1, 1.16, 0, -1, 0, 1452.19)" gradientUnits="userSpaceOnUse"><stop offset="0.04" stop-color="#9f19ab"/><stop offset="0.24" stop-color="#ae25b1"/><stop offset="0.65" stop-color="#d744bf"/><stop offset="1" stop-color="#ff63ce"/></linearGradient><linearGradient id="linear-gradient-13" x1="94.56" y1="1332.22" x2="96.41" y2="1332.22" gradientTransform="matrix(1, 1.16, 0, -1, 0, 1452.19)" xlink:href="#linear-gradient-3"/><linearGradient id="linear-gradient-14" x1="76.8" y1="1332.59" x2="83.74" y2="1332.59" gradientTransform="matrix(1, 1.16, 0, -1, 0, 1452.19)" xlink:href="#linear-gradient-3"/><linearGradient id="linear-gradient-15" x1="92.81" y1="1337.41" x2="100.15" y2="1337.41" gradientTransform="matrix(1, 1.16, 0, -1, 0, 1452.19)" xlink:href="#linear-gradient-3"/><linearGradient id="New_Gradient_Swatch_copy_8-3" x1="71.3" y1="1334.32" x2="80.01" y2="1334.32" gradientTransform="matrix(1, 1.16, 0, -1, 0, 1452.19)" xlink:href="#New_Gradient_Swatch_copy_8"/><linearGradient id="linear-gradient-16" x1="73.39" y1="1321.48" x2="80.21" y2="1321.48" gradientTransform="matrix(1, 1.16, 0, -1, 0, 1452.19)" xlink:href="#linear-gradient-3"/><linearGradient id="linear-gradient-17" x1="82.37" y1="1325.66" x2="85.84" y2="1325.66" gradientTransform="matrix(1, 1.16, 0, -1, 0, 1452.19)" xlink:href="#linear-gradient-3"/><linearGradient id="linear-gradient-18" x1="78.06" y1="1341.28" x2="81.66" y2="1341.28" gradientTransform="matrix(1, 1.16, 0, -1, 0, 1452.19)" xlink:href="#linear-gradient-3"/><linearGradient id="linear-gradient-19" x1="98.23" y1="1350.04" x2="107.54" y2="1350.04" gradientTransform="matrix(1, 1.16, 0, -1, 0, 1452.19)" xlink:href="#linear-gradient-3"/><linearGradient id="linear-gradient-20" x1="63.76" y1="1333.09" x2="67.05" y2="1333.09" gradientTransform="matrix(1, 1.16, 0, -1, 0, 1452.19)" xlink:href="#linear-gradient-3"/><linearGradient id="New_Gradient_Swatch_copy_8-4" x1="57.03" y1="1314.64" x2="71.66" y2="1314.64" gradientTransform="matrix(1, 1.16, 0, -1, 0, 1452.19)" xlink:href="#New_Gradient_Swatch_copy_8"/><linearGradient id="linear-gradient-21" x1="100.39" y1="1345.1" x2="103.83" y2="1345.1" gradientTransform="matrix(1, 1.16, 0, -1, 0, 1452.19)" xlink:href="#linear-gradient-3"/><linearGradient id="linear-gradient-22" x1="102.3" y1="1343.59" x2="111.97" y2="1343.59" gradientTransform="matrix(1, 1.16, 0, -1, 0, 1452.19)" xlink:href="#linear-gradient-3"/><linearGradient id="linear-gradient-23" x1="91.46" y1="1340.92" x2="98.27" y2="1340.92" gradientTransform="matrix(1, 1.16, 0, -1, 0, 1452.19)" xlink:href="#linear-gradient-3"/><linearGradient id="New_Gradient_Swatch_copy_9-2" x1="98.56" y1="1336.2" x2="106.28" y2="1336.2" xlink:href="#New_Gradient_Swatch_copy_9"/><linearGradient id="New_Gradient_Swatch_copy_9-3" x1="63.76" y1="1329.17" x2="69.15" y2="1329.17" xlink:href="#New_Gradient_Swatch_copy_9"/><linearGradient id="New_Gradient_Swatch_copy_9-4" x1="93.42" y1="1345.33" x2="96.11" y2="1345.33" xlink:href="#New_Gradient_Swatch_copy_9"/><linearGradient id="linear-gradient-24" x1="63.76" y1="1326.28" x2="74.65" y2="1326.28" gradientTransform="matrix(1, 1.16, 0, -1, 0, 1452.19)" xlink:href="#linear-gradient-3"/><linearGradient id="New_Gradient_Swatch_copy_9-5" x1="63.76" y1="1323.47" x2="80.39" y2="1323.47" xlink:href="#New_Gradient_Swatch_copy_9"/><linearGradient id="linear-gradient-25" x1="163.92" y1="48.83" x2="242.29" y2="198.25" gradientUnits="userSpaceOnUse"><stop offset="0.01" stop-color="#9f19ab"/><stop offset="0.43" stop-color="#5f27bd"/><stop offset="0.9" stop-color="#3d065f"/></linearGradient><linearGradient id="linear-gradient-26" x1="163.81" y1="50.18" x2="241.24" y2="197.83" xlink:href="#linear-gradient-25"/><linearGradient id="linear-gradient-27" x1="163.7" y1="51.54" x2="240.19" y2="197.4" xlink:href="#linear-gradient-25"/><linearGradient id="linear-gradient-28" x1="163.59" y1="52.89" x2="239.15" y2="196.97" xlink:href="#linear-gradient-25"/><linearGradient id="linear-gradient-29" x1="163.48" y1="54.25" x2="238.11" y2="196.55" xlink:href="#linear-gradient-25"/><linearGradient id="linear-gradient-30" x1="163.38" y1="55.6" x2="237.07" y2="196.12" xlink:href="#linear-gradient-25"/><linearGradient id="linear-gradient-31" x1="163.28" y1="56.95" x2="236.04" y2="195.69" xlink:href="#linear-gradient-25"/><linearGradient id="linear-gradient-32" x1="163.18" y1="58.3" x2="235" y2="195.26" xlink:href="#linear-gradient-25"/><linearGradient id="linear-gradient-33" x1="163.08" y1="59.65" x2="233.97" y2="194.83" xlink:href="#linear-gradient-25"/><linearGradient id="linear-gradient-34" x1="162.98" y1="60.99" x2="232.95" y2="194.4" xlink:href="#linear-gradient-25"/><linearGradient id="linear-gradient-35" x1="162.89" y1="62.34" x2="231.92" y2="193.96" xlink:href="#linear-gradient-25"/><linearGradient id="linear-gradient-36" x1="162.8" y1="63.68" x2="230.9" y2="193.53" xlink:href="#linear-gradient-25"/><linearGradient id="New_Gradient_Swatch_copy_7" x1="292.94" y1="234.89" x2="144.47" y2="103.39" gradientUnits="userSpaceOnUse"><stop offset="0.04" stop-color="#138bbd"/><stop offset="0.23" stop-color="#169ac7"/><stop offset="0.59" stop-color="#1fc3df"/><stop offset="1" stop-color="#2af6ff"/></linearGradient><radialGradient id="radial-gradient-78" cx="213.55" cy="154.65" r="120.54" gradientUnits="userSpaceOnUse"><stop offset="0" stop-color="#711f56"/><stop offset="0.16" stop-color="#6c1e52"/><stop offset="0.36" stop-color="#5c1946"/><stop offset="0.58" stop-color="#431233"/><stop offset="0.82" stop-color="#200918"/><stop offset="1"/></radialGradient><linearGradient id="New_Gradient_Swatch_copy_26-6" x1="272" y1="240.06" x2="76.75" y2="37.81" gradientTransform="translate(102.78 -73.87) rotate(30.31)" xlink:href="#New_Gradient_Swatch_copy_26"/><linearGradient id="New_Gradient_Swatch_copy_26-7" x1="278.77" y1="233.52" x2="83.52" y2="31.27" gradientTransform="translate(116.23 -86.89) rotate(30.31)" xlink:href="#New_Gradient_Swatch_copy_26"/><linearGradient id="New_Gradient_Swatch_copy_26-8" x1="285.99" y1="226.56" x2="90.74" y2="24.31" gradientTransform="translate(129.38 -100.12) rotate(30.31)" xlink:href="#New_Gradient_Swatch_copy_26"/><linearGradient id="New_Gradient_Swatch_copy_26-9" x1="314.9" y1="289" x2="-249.88" y2="-296.04" xlink:href="#New_Gradient_Swatch_copy_26"/><linearGradient id="New_Gradient_Swatch_copy_26-10" x1="321.68" y1="282.46" x2="-243.11" y2="-302.58" xlink:href="#New_Gradient_Swatch_copy_26"/><linearGradient id="New_Gradient_Swatch_copy_26-11" x1="328.89" y1="275.49" x2="-235.9" y2="-309.54" xlink:href="#New_Gradient_Swatch_copy_26"/><linearGradient id="New_Gradient_Swatch_copy_8-5" x1="267.66" y1="213.56" x2="28.66" y2="3.23" xlink:href="#New_Gradient_Swatch_copy_8"/><linearGradient id="New_Gradient_Swatch_copy_8-6" x1="244.87" y1="211.08" x2="150.12" y2="117.33" xlink:href="#New_Gradient_Swatch_copy_8"/><linearGradient id="New_Gradient_Swatch_copy_8-7" x1="246.64" y1="209.29" x2="151.89" y2="115.54" xlink:href="#New_Gradient_Swatch_copy_8"/><linearGradient id="New_Gradient_Swatch_copy_8-8" x1="250.99" y1="204.89" x2="156.24" y2="111.14" xlink:href="#New_Gradient_Swatch_copy_8"/><linearGradient id="New_Gradient_Swatch_copy_8-9" x1="252.48" y1="203.39" x2="157.73" y2="109.64" xlink:href="#New_Gradient_Swatch_copy_8"/><linearGradient id="New_Gradient_Swatch_copy_8-10" x1="258.06" y1="197.75" x2="163.31" y2="104" xlink:href="#New_Gradient_Swatch_copy_8"/></defs><g class="cls-2"><g id="Layer_2" data-name="Layer 2"><g id="Layer_1-2" data-name="Layer 1"><path class="cls-3" d="M141.44,273,3.67,193.45C1.25,192.05,0,190.18,0,188.22V181.4c0-2.38,1.8,1.75,5.2-.21l78.18-45.14c6.28-3.63,15.79-4,21.23-.88l137.76,79.54c1.82,1,3.14-3.4,3.61-2,.15.48.05,6.72.06,7.21.06,2.44-1.7,5-5.19,7l-78.19,45.14C156.38,275.73,146.88,276.13,141.44,273Z"/><path class="cls-4" d="M141.44,266.29,3.67,186.75c-5.44-3.14-4.76-8.63,1.53-12.26l78.18-45.14c6.28-3.62,15.79-4,21.23-.88L242.37,208c5.44,3.14,4.76,8.63-1.52,12.26l-78.19,45.14C156.38,269,146.88,269.43,141.44,266.29Z"/><path class="cls-5" d="M150.66,265.66a16,16,0,0,1-7.84-1.76L5.05,184.37c-.86-.5-2.3-1.54-2.3-2.94s1.43-3.17,3.82-4.55l78.19-45.14a21.77,21.77,0,0,1,10.63-2.64,16.07,16.07,0,0,1,7.84,1.76L241,210.4c.86.49,2.29,1.53,2.29,2.93s-1.42,3.17-3.82,4.55L161.29,263A21.91,21.91,0,0,1,150.66,265.66Z"/><path class="cls-6" d="M240.85,219.13l-78.19,45.14c-6.28,3.63-15.78,4-21.22.88L3.67,185.61c-2.25-1.3-3.44-3-3.63-4.82-.28,2.22.91,4.38,3.63,6l137.77,79.54c5.44,3.14,14.94,2.74,21.22-.88l78.19-45.14c3.68-2.13,5.42-4.88,5.15-7.44C245.72,215.05,244,217.32,240.85,219.13Z"/><path class="cls-7" d="M165.92,237,54.05,172.4c-2.24-1.3-2-3.55.63-5.05l42-24.25c2.58-1.49,6.5-1.65,8.74-.36l111.87,64.59c2.24,1.29,2,3.55-.63,5l-42,24.25C172.07,238.12,168.16,238.28,165.92,237Z"/><path class="cls-8" d="M99.13,147.82,106.3,152a3.63,3.63,0,0,0,3.29,0,1,1,0,0,0,0-1.9l-7.17-4.14a3.63,3.63,0,0,0-3.29,0A1,1,0,0,0,99.13,147.82Zm12.27,7.09,3.4,2a3.6,3.6,0,0,0,3.29,0,1,1,0,0,0,0-1.9l-3.4-2a3.66,3.66,0,0,0-3.29,0A1,1,0,0,0,111.4,154.91Zm8.5,4.91,3.4,2a3.63,3.63,0,0,0,3.29,0c.91-.52.9-1.37,0-1.9l-3.4-2a3.63,3.63,0,0,0-3.29,0A1,1,0,0,0,119.9,159.82Zm8.5,4.9,3.4,2a3.66,3.66,0,0,0,3.29,0c.91-.52.9-1.37,0-1.9l-3.39-2a3.65,3.65,0,0,0-3.3,0A1,1,0,0,0,128.4,164.72Zm8.51,4.91,3.39,2a3.63,3.63,0,0,0,3.29,0c.91-.52.9-1.37,0-1.9l-3.39-2a3.63,3.63,0,0,0-3.29,0A1,1,0,0,0,136.91,169.63Zm8.5,4.91,3.39,2a3.63,3.63,0,0,0,3.29,0,1,1,0,0,0,0-1.9l-3.39-2a3.63,3.63,0,0,0-3.29,0C144.49,173.16,144.5,174,145.41,174.54Zm8.5,4.91,3.39,2a3.65,3.65,0,0,0,3.3,0,1,1,0,0,0,0-1.9l-3.4-2a3.63,3.63,0,0,0-3.29,0C153,178.07,153,178.92,153.91,179.45Zm8.5,4.91,3.4,2a3.63,3.63,0,0,0,3.29,0,1,1,0,0,0,0-1.9l-3.4-2a3.63,3.63,0,0,0-3.29,0C161.49,183,161.5,183.83,162.41,184.36Zm8.5,4.91,3.4,2a3.63,3.63,0,0,0,3.29,0,1,1,0,0,0,0-1.9l-3.4-2a3.63,3.63,0,0,0-3.29,0C170,187.89,170,188.74,170.91,189.27Zm8.5,4.9,3.4,2a3.63,3.63,0,0,0,3.29,0c.91-.52.9-1.37,0-1.9l-3.4-2a3.63,3.63,0,0,0-3.29,0A1,1,0,0,0,179.41,194.17Zm8.5,4.91,3.4,2a3.63,3.63,0,0,0,3.29,0c.91-.52.9-1.37,0-1.9l-3.4-2a3.63,3.63,0,0,0-3.29,0A1,1,0,0,0,187.91,199.08Zm8.5,4.91,3.4,2a3.63,3.63,0,0,0,3.29,0,1,1,0,0,0,0-1.9l-3.39-2a3.65,3.65,0,0,0-3.3,0A1,1,0,0,0,196.41,204Zm8.68,5,3.4,2a3.63,3.63,0,0,0,3.29,0,1,1,0,0,0,0-1.9l-3.4-2a3.63,3.63,0,0,0-3.29,0A1,1,0,0,0,205.09,209ZM91.48,152.5l2.94,1.7a4.13,4.13,0,0,0,3.75,0l2.92-1.68a1.15,1.15,0,0,0,0-2.17l-2.94-1.69a4.13,4.13,0,0,0-3.75,0l-2.92,1.69A1.14,1.14,0,0,0,91.48,152.5Zm15.19,6.61,2.92-1.69a1.14,1.14,0,0,0,0-2.16l-2.94-1.69a4.13,4.13,0,0,0-3.75,0L100,155.25a1.14,1.14,0,0,0,0,2.16l2.94,1.69A4.13,4.13,0,0,0,106.67,159.11Zm1.81,3.21,2.94,1.69a4.13,4.13,0,0,0,3.75,0l2.92-1.69a1.14,1.14,0,0,0,0-2.16l-2.94-1.7a4.13,4.13,0,0,0-3.75,0l-2.92,1.68A1.15,1.15,0,0,0,108.48,162.32Zm8.51,4.9,2.94,1.7a4.14,4.14,0,0,0,3.74,0l2.92-1.69a1.14,1.14,0,0,0,0-2.16l-2.94-1.7a4.14,4.14,0,0,0-3.74,0L117,165.06A1.14,1.14,0,0,0,117,167.22ZM135.08,170l-2.94-1.7a4.14,4.14,0,0,0-3.74,0L125.47,170c-1,.6-1,1.56,0,2.16l2.94,1.7a4.14,4.14,0,0,0,3.74,0l2.92-1.69A1.14,1.14,0,0,0,135.08,170Zm8.5,4.91-2.94-1.7a4.14,4.14,0,0,0-3.74,0L134,174.88c-1,.59-1,1.56,0,2.16l2.94,1.7a4.11,4.11,0,0,0,3.74,0l2.92-1.68A1.14,1.14,0,0,0,143.58,174.9Zm8.5,4.9-2.94-1.69a4.11,4.11,0,0,0-3.74,0l-2.92,1.69a1.14,1.14,0,0,0,0,2.16l2.94,1.7a4.11,4.11,0,0,0,3.74,0L152.1,182C153.13,181.37,153.12,180.4,152.08,179.8Zm8.51,4.91-2.94-1.7a4.16,4.16,0,0,0-3.75,0L151,184.69a1.15,1.15,0,0,0,0,2.17l2.94,1.69a4.13,4.13,0,0,0,3.75,0l2.92-1.69C161.63,186.28,161.62,185.31,160.59,184.71Zm8.5,4.91-2.94-1.7a4.13,4.13,0,0,0-3.75,0l-2.92,1.68a1.15,1.15,0,0,0,0,2.17l2.94,1.69a4.16,4.16,0,0,0,3.75,0l2.92-1.69C170.13,191.19,170.12,190.22,169.09,189.62Zm8.5,4.91-2.94-1.7a4.16,4.16,0,0,0-3.75,0L168,194.51a1.14,1.14,0,0,0,0,2.16l2.94,1.7a4.16,4.16,0,0,0,3.75,0l2.92-1.69A1.14,1.14,0,0,0,177.59,194.53Zm-1.1,7.05,2.94,1.7a4.16,4.16,0,0,0,3.75,0l2.92-1.69a1.14,1.14,0,0,0,0-2.16l-2.94-1.7a4.16,4.16,0,0,0-3.75,0l-2.92,1.69C175.45,200,175.46,201,176.49,201.58Zm18.1,2.76-2.94-1.69a4.14,4.14,0,0,0-3.74,0L185,204.33c-1,.59-1,1.56,0,2.16l2.94,1.7a4.11,4.11,0,0,0,3.74,0l2.92-1.68A1.15,1.15,0,0,0,194.59,204.34ZM207,211.53l-6.71-3.87a4.16,4.16,0,0,0-3.75,0l-2.92,1.69c-1,.59-1,1.56,0,2.16l6.72,3.88a4.11,4.11,0,0,0,3.74,0l2.92-1.68A1.14,1.14,0,0,0,207,211.53ZM83.61,157.05l6.71,3.87a4.16,4.16,0,0,0,3.75,0L97,159.24c1-.59,1-1.56,0-2.16l-6.72-3.88a4.11,4.11,0,0,0-3.74,0l-2.92,1.68A1.14,1.14,0,0,0,83.61,157.05Zm12.27,7.08,2.94,1.7a4.16,4.16,0,0,0,3.75,0l2.92-1.69a1.14,1.14,0,0,0,0-2.16l-2.94-1.7a4.16,4.16,0,0,0-3.75,0L95.87,162A1.14,1.14,0,0,0,95.88,164.13Zm11.44,6.61a4.13,4.13,0,0,0,3.75,0l2.92-1.68a1.14,1.14,0,0,0,0-2.16L111,165.2a4.16,4.16,0,0,0-3.75,0l-2.92,1.69c-1,.59-1,1.56,0,2.16Zm8.5,4.91a4.13,4.13,0,0,0,3.75,0l2.92-1.68a1.15,1.15,0,0,0,0-2.17l-2.94-1.69a4.13,4.13,0,0,0-3.75,0l-2.92,1.69c-1,.59-1,1.56,0,2.16Zm8.48-.64-2.93,1.68c-1,.6-1,1.57,0,2.17l2.94,1.69a4.11,4.11,0,0,0,3.74,0l2.92-1.69a1.14,1.14,0,0,0,0-2.16L128,175A4.14,4.14,0,0,0,124.3,175Zm8.68,4.8-3.28,1.9c-.94.53-.93,1.41,0,1.95l3.3,1.91a3.73,3.73,0,0,0,3.38,0l3.28-1.89c.94-.54.93-1.41,0-2l-3.3-1.9A3.73,3.73,0,0,0,133,179.81Zm8.5,4.91-3.28,1.89a1,1,0,0,0,0,2l3.3,1.91a3.73,3.73,0,0,0,3.38,0l3.28-1.89a1,1,0,0,0,0-2l-3.3-1.9A3.7,3.7,0,0,0,141.48,184.72Zm8.5,4.91-3.28,1.89a1,1,0,0,0,0,2l3.3,1.9a3.75,3.75,0,0,0,3.39,0l3.28-1.89a1,1,0,0,0,0-2l-3.31-1.91A3.73,3.73,0,0,0,150,189.63Zm8.5,4.91-3.28,1.89c-.93.54-.93,1.41,0,2l3.3,1.9a3.75,3.75,0,0,0,3.39,0l3.28-1.9c.93-.53.92-1.41,0-2l-3.3-1.91A3.75,3.75,0,0,0,158.48,194.54Zm8.5,4.9-3.28,1.9a1,1,0,0,0,0,1.95l3.3,1.91a3.78,3.78,0,0,0,3.39,0l3.28-1.9a1,1,0,0,0,0-1.95l-3.3-1.91A3.78,3.78,0,0,0,167,199.44Zm11.92,10.67,3.28-1.89a1,1,0,0,0,0-1.95l-3.3-1.91a3.78,3.78,0,0,0-3.39,0l-3.28,1.9a1,1,0,0,0,0,1.95l3.3,1.91A3.75,3.75,0,0,0,178.9,210.11Zm8.5,4.91,3.28-1.89c.93-.54.93-1.41,0-2l-3.3-1.9a3.75,3.75,0,0,0-3.39,0l-3.28,1.9c-.93.53-.92,1.41,0,2L184,215A3.73,3.73,0,0,0,187.4,215Zm11.95,1.16-3.3-1.9a3.75,3.75,0,0,0-3.39,0l-3.28,1.9a1,1,0,0,0,0,2l3.3,1.91a3.75,3.75,0,0,0,3.39,0l3.28-1.89C200.29,217.6,200.29,216.73,199.35,216.18ZM75.55,161.49l10.66,6.15a3.75,3.75,0,0,0,3.39,0l3.28-1.9c.93-.53.92-1.41,0-1.95l-10.66-6.16a3.75,3.75,0,0,0-3.39,0l-3.28,1.89A1,1,0,0,0,75.55,161.49Zm15.86,9.15,3.3,1.91a3.78,3.78,0,0,0,3.39,0l3.28-1.9a1,1,0,0,0,0-1.95l-3.3-1.91a3.78,3.78,0,0,0-3.39,0l-3.28,1.9A1,1,0,0,0,91.41,170.64Zm8.5,4.91,3.3,1.91a3.75,3.75,0,0,0,3.39,0l3.28-1.89a1,1,0,0,0,0-1.95l-3.3-1.91a3.75,3.75,0,0,0-3.39,0l-3.28,1.9A1,1,0,0,0,99.91,175.55Zm8.5,4.91,3.31,1.91a3.73,3.73,0,0,0,3.38,0l3.28-1.89a1,1,0,0,0,0-2l-3.3-1.9a3.75,3.75,0,0,0-3.39,0l-3.28,1.9C107.47,179,107.48,179.92,108.41,180.46Zm15.19,6.82,3.28-1.89a1,1,0,0,0,0-2l-3.3-1.9a3.7,3.7,0,0,0-3.38,0l-3.29,1.89c-.93.54-.92,1.42,0,2l3.3,1.9A3.7,3.7,0,0,0,123.6,187.28Zm8.5,4.91,3.28-1.9c.94-.53.93-1.41,0-1.95l-3.3-1.91a3.73,3.73,0,0,0-3.38,0l-3.28,1.89c-.94.54-.93,1.41,0,2l3.3,1.9A3.73,3.73,0,0,0,132.1,192.19Zm8.5,4.91,3.29-1.9c.93-.54.92-1.41,0-1.95l-3.3-1.91a3.73,3.73,0,0,0-3.38,0l-3.28,1.89a1,1,0,0,0,0,2l3.3,1.91A3.76,3.76,0,0,0,140.6,197.1Zm8.51,4.91,3.28-1.9a1,1,0,0,0,0-2l-3.31-1.91a3.76,3.76,0,0,0-3.38,0l-3.28,1.9a1,1,0,0,0,0,2l3.3,1.91A3.78,3.78,0,0,0,149.11,202Zm8.5,4.9,3.28-1.89c.93-.54.93-1.41,0-2l-3.3-1.9a3.75,3.75,0,0,0-3.39,0l-3.28,1.9a1,1,0,0,0,0,1.95l3.3,1.91A3.75,3.75,0,0,0,157.61,206.91Zm8.5,4.91,3.28-1.89a1,1,0,0,0,0-2l-3.3-1.9a3.75,3.75,0,0,0-3.39,0L159.41,208a1,1,0,0,0,0,2l3.3,1.91A3.75,3.75,0,0,0,166.11,211.82Zm1.81,3,3.3,1.9a3.75,3.75,0,0,0,3.39,0l3.28-1.89a1,1,0,0,0,0-2l-3.3-1.91a3.75,3.75,0,0,0-3.39,0l-3.28,1.89A1,1,0,0,0,167.92,214.82Zm23.55,5.91-8.39-4.85a3.75,3.75,0,0,0-3.39,0l-3.28,1.89c-.93.54-.92,1.41,0,2l8.4,4.84a3.73,3.73,0,0,0,3.38,0l3.29-1.9C192.42,222.15,192.41,221.27,191.47,220.73ZM67.71,166.27,82.83,175a4.24,4.24,0,0,0,3.83,0l2.84-1.64a1.17,1.17,0,0,0,0-2.21l-15.12-8.73a4.21,4.21,0,0,0-3.83,0l-2.84,1.64A1.17,1.17,0,0,0,67.71,166.27Zm20.76,12,2.87,1.65a4.25,4.25,0,0,0,3.82,0L98,178.27c1.06-.6,1-1.59,0-2.2l-2.86-1.66a4.22,4.22,0,0,0-3.82,0l-2.85,1.64A1.17,1.17,0,0,0,88.47,178.26Zm8.51,4.9,2.86,1.66a4.22,4.22,0,0,0,3.82,0l2.84-1.64c1.06-.61,1-1.59,0-2.21l-2.86-1.65a4.22,4.22,0,0,0-3.82,0L97,181C95.91,181.56,95.92,182.55,97,183.16Zm8.5,4.91,2.86,1.66a4.22,4.22,0,0,0,3.82,0l2.85-1.64a1.17,1.17,0,0,0,0-2.21l-2.86-1.65a4.25,4.25,0,0,0-3.82,0l-2.84,1.65C104.41,186.47,104.42,187.46,105.48,188.07ZM114,193l2.86,1.65a4.22,4.22,0,0,0,3.82,0l2.85-1.64a1.17,1.17,0,0,0,0-2.21l-2.87-1.65a4.22,4.22,0,0,0-3.82,0L114,190.77A1.17,1.17,0,0,0,114,193Zm8.5,4.91,2.86,1.65a4.24,4.24,0,0,0,3.83,0l2.84-1.64a1.17,1.17,0,0,0,0-2.21l-2.86-1.65a4.24,4.24,0,0,0-3.83,0l-2.84,1.64A1.17,1.17,0,0,0,122.48,197.89Zm8.5,4.91,2.86,1.65a4.27,4.27,0,0,0,3.83,0l2.84-1.64a1.17,1.17,0,0,0,0-2.21L137.64,199a4.21,4.21,0,0,0-3.83,0L131,200.59A1.17,1.17,0,0,0,131,202.8Zm8.5,4.91,2.86,1.65a4.27,4.27,0,0,0,3.83,0l2.84-1.65a1.16,1.16,0,0,0,0-2.2l-2.86-1.66a4.24,4.24,0,0,0-3.83,0l-2.84,1.64C138.42,206.11,138.42,207.09,139.48,207.71Zm8.5,4.9,2.87,1.66a4.22,4.22,0,0,0,3.82,0l2.84-1.64c1.06-.61,1.05-1.59,0-2.21l-2.86-1.65a4.25,4.25,0,0,0-3.82,0L148,210.41A1.16,1.16,0,0,0,148,212.61Zm8.51,4.91,2.86,1.65a4.19,4.19,0,0,0,3.82,0l2.84-1.64a1.17,1.17,0,0,0,0-2.21l-2.86-1.65a4.25,4.25,0,0,0-3.82,0l-2.85,1.64A1.17,1.17,0,0,0,156.49,217.52Zm8.5,4.91,2.86,1.65a4.22,4.22,0,0,0,3.82,0l2.85-1.64a1.17,1.17,0,0,0,0-2.21l-2.86-1.65a4.22,4.22,0,0,0-3.82,0L165,220.22A1.17,1.17,0,0,0,165,222.43Zm18.2,2.83-2.86-1.65a4.19,4.19,0,0,0-3.82,0l-2.85,1.64a1.17,1.17,0,0,0,0,2.21l2.86,1.65a4.25,4.25,0,0,0,3.82,0l2.85-1.64A1.17,1.17,0,0,0,183.19,225.26ZM73.13,170.8,66.49,167a4.22,4.22,0,0,0-3.82,0l-2.85,1.64c-1,.6-1,1.59,0,2.2l6.63,3.84a4.24,4.24,0,0,0,3.83,0L73.14,173A1.17,1.17,0,0,0,73.13,170.8Zm8.5,4.91-2.86-1.65a4.24,4.24,0,0,0-3.83,0l-2.84,1.64a1.17,1.17,0,0,0,0,2.21L75,179.55a4.24,4.24,0,0,0,3.83,0l2.84-1.64A1.17,1.17,0,0,0,81.63,175.71Zm8.5,4.91L87.27,179a4.24,4.24,0,0,0-3.83,0L80.6,180.6a1.17,1.17,0,0,0,0,2.21l2.86,1.65a4.24,4.24,0,0,0,3.83,0l2.84-1.64A1.17,1.17,0,0,0,90.13,180.62ZM149.64,215l-53.87-31.1a4.19,4.19,0,0,0-3.82,0l-2.85,1.64a1.17,1.17,0,0,0,0,2.21L143,218.82a4.27,4.27,0,0,0,3.83,0l2.84-1.65A1.16,1.16,0,0,0,149.64,215Zm8.5,4.9-2.86-1.65a4.24,4.24,0,0,0-3.83,0l-2.84,1.64c-1.05.61-1.05,1.59,0,2.21l2.86,1.65a4.24,4.24,0,0,0,3.83,0l2.84-1.64C159.2,221.48,159.2,220.5,158.14,219.88Zm8.5,4.91-2.86-1.65a4.25,4.25,0,0,0-3.82,0l-2.85,1.65a1.16,1.16,0,0,0,0,2.2l2.87,1.66a4.22,4.22,0,0,0,3.82,0l2.84-1.64A1.17,1.17,0,0,0,166.64,224.79Zm8.68,5-2.86-1.65a4.27,4.27,0,0,0-3.83,0l-2.84,1.65a1.16,1.16,0,0,0,0,2.2l2.86,1.66a4.24,4.24,0,0,0,3.83,0l2.84-1.64C176.38,231.4,176.38,230.42,175.32,229.8Z"/><path class="cls-9" d="M240.19,207,107.45,130.27c-5.14-3-9.3-10.92-9.3-17.77V8.36c0-6.85,4.16-10,9.3-7L240.19,78c5.14,3,9.31,10.93,9.31,17.78V199.92C249.5,206.77,245.33,209.92,240.19,207Z"/><path class="cls-10" d="M241.39,201.6,110.07,125.75c-4.14-2.63-6.7-7.88-6.7-13.25V7.86a1.65,1.65,0,0,1,2.49-1.42l.29.17L237.58,82.54c4.92,2.83,6.69,7.88,6.69,13.25V200.18a1.78,1.78,0,0,1-2.66,1.55Z"/><path class="cls-11" d="M237.58,82.54,106.15,6.61l-.29-.17a1.66,1.66,0,0,0-2.49,1.42V112.5c0,5.37,2.56,10.62,6.7,13.25L241.39,201.6l.22.13a1.78,1.78,0,0,0,2.66-1.55V95.79C244.27,90.42,242.5,85.37,237.58,82.54Zm5.64,117.64a.74.74,0,0,1-.73.74.71.71,0,0,1-.37-.1l-131.53-76c-3.74-2.37-6.17-7.23-6.17-12.35V7.86a.61.61,0,0,1,.61-.61.58.58,0,0,1,.3.09l131.72,76.1c5.1,2.94,6.17,8.34,6.17,12.35Z"/><path class="cls-12" d="M240.64,77.79,107.9,1.11a6.19,6.19,0,0,0-5.61-.72,6.89,6.89,0,0,1,4.49,1L239.52,78.12c5.14,3,9.31,10.93,9.31,17.78V200c0,4.05-1.46,6.78-3.71,7.75,2.88-.45,4.82-3.4,4.82-8.08V95.57C249.94,88.72,245.78,80.76,240.64,77.79Z"/><polygon class="cls-13" points="197.28 119.91 159.61 98.16 159.61 78.17 197.28 99.92 197.28 119.91"/><polygon class="cls-14" points="131.62 82.28 93.94 60.53 93.94 40.54 131.62 62.29 131.62 82.28"/><path class="cls-15" d="M163.08,35.41,132,17.49c-2.64-1.53-4.79-5.63-4.79-9.16h0c0-3.53,2.15-5.15,4.79-3.62l31.05,17.92c2.64,1.53,4.79,5.63,4.79,9.16h0C167.87,35.32,165.72,36.94,163.08,35.41Z"/><path class="cls-16" d="M161.45,132.86l-31-17.93c-2.64-1.52-4.79-5.63-4.79-9.16h0c0-3.52,2.15-5.15,4.79-3.62l31,17.92c2.65,1.53,4.8,5.63,4.8,9.16h0C166.25,132.76,164.1,134.38,161.45,132.86Z"/><polygon class="cls-17" points="180.56 84.24 180.56 73.76 165.35 65.22 164.85 66.09 179.56 74.34 179.56 83.66 177.4 82.42 179.83 88.67 182.26 85.22 180.56 84.24"/><polygon class="cls-17" points="146.97 38.56 149.4 35.12 147.5 34.02 147.5 28.16 146.5 27.86 146.5 33.44 144.54 32.31 146.97 38.56"/><polygon class="cls-17" points="115.06 51.73 117.49 48.28 115.75 47.28 115.75 37.71 126.97 44.22 127.47 43.35 114.75 35.98 114.75 46.7 112.63 45.48 115.06 51.73"/><polygon class="cls-17" points="177.06 114.98 113.06 78.13 113.06 72.11 112.06 71.81 112.06 78.71 146.5 98.59 146.5 106.07 144.54 104.94 146.97 111.19 149.4 107.75 147.5 106.64 147.5 99.17 177.31 116.27 178.06 116.71 178.06 109.36 177.06 109.06 177.06 114.98"/><polygon class="cls-18" points="146.85 70.61 127.79 43.87 146.85 39.14 165.91 65.88 146.85 70.61"/><polygon class="cls-19" points="159.61 78.17 159.61 78.96 196.78 100.42 196.78 119.62 197.28 119.91 197.28 99.92 159.61 78.17"/><polygon class="cls-20" points="93.94 40.54 93.94 41.33 131.12 62.79 131.12 81.99 131.62 82.28 131.62 62.29 93.94 40.54"/><path class="cls-21" d="M163.08,22.63,132,4.71c-1.59-.92-3-.69-3.88.41a3,3,0,0,1,3.38.09l31.05,17.92c2.64,1.53,4.79,5.63,4.79,9.16a5.13,5.13,0,0,1-.91,3.21,4.49,4.49,0,0,0,1.41-3.71C167.87,28.26,165.72,24.16,163.08,22.63Z"/><path class="cls-22" d="M161.45,120.07l-31-17.92c-1.59-.92-3-.69-3.88.41a3,3,0,0,1,3.38.09l31,17.92c2.65,1.53,4.8,5.63,4.8,9.16a5.19,5.19,0,0,1-.91,3.22,4.52,4.52,0,0,0,1.41-3.72C166.25,125.7,164.1,121.6,161.45,120.07Z"/><polygon class="cls-23" points="146.35 39.64 165.18 66.06 165.91 65.88 146.85 39.14 127.79 43.87 128.01 44.19 146.35 39.64"/><g class="cls-24"><path class="cls-25" d="M214.48,85.78a4.89,4.89,0,0,1-.59-2.39V77.57c0-.89.2-1.46.59-1.71s1-.17,1.71.26a4.46,4.46,0,0,1,1.71,1.71,4.9,4.9,0,0,1,.59,2.4V86c0,.89-.2,1.46-.59,1.72s-1,.17-1.71-.26A4.35,4.35,0,0,1,214.48,85.78Zm2.49-.5v-6a1.63,1.63,0,0,0-.78-1.54c-.53-.31-.79-.09-.79.63v6a1.64,1.64,0,0,0,.79,1.55C216.71,86.22,217,86,217,85.28Z"/><path class="cls-26" d="M216.12,94,214.54,93V91.81a4,4,0,0,0,1,.47.75.75,0,0,0,.62,0,1.3,1.3,0,0,0,.42-.61l1,.59v11.06l-1.51-.87Z"/><path class="cls-27" d="M214.48,116a4.89,4.89,0,0,1-.59-2.39v-5.82c0-.89.2-1.46.59-1.72s1-.17,1.71.26A4.48,4.48,0,0,1,217.9,108a4.89,4.89,0,0,1,.59,2.39v5.82c0,.89-.2,1.46-.59,1.71s-1,.18-1.71-.25A4.35,4.35,0,0,1,214.48,116Zm2.49-.5v-6a1.65,1.65,0,0,0-.78-1.55c-.53-.3-.79-.08-.79.64v6a1.64,1.64,0,0,0,.79,1.55C216.71,116.42,217,116.2,217,115.48Z"/><path class="cls-28" d="M214.48,131.08a4.9,4.9,0,0,1-.59-2.4v-5.81c0-.89.2-1.46.59-1.72s1-.17,1.71.26a4.48,4.48,0,0,1,1.71,1.72,4.89,4.89,0,0,1,.59,2.39v5.82c0,.89-.2,1.46-.59,1.71s-1,.17-1.71-.25A4.41,4.41,0,0,1,214.48,131.08Zm2.49-.5v-6a1.65,1.65,0,0,0-.78-1.55c-.53-.3-.79-.09-.79.64v6a1.62,1.62,0,0,0,.79,1.54C216.71,131.52,217,131.3,217,130.58Z"/><path class="cls-29" d="M216.12,139.26l-1.58-.92v-1.23a4.35,4.35,0,0,0,1,.47.71.71,0,0,0,.62-.06,1.22,1.22,0,0,0,.42-.6l1,.59v11.06l-1.51-.87Z"/><path class="cls-30" d="M214.48,161.28a4.9,4.9,0,0,1-.59-2.4v-5.81c0-.89.2-1.46.59-1.72s1-.17,1.71.26a4.48,4.48,0,0,1,1.71,1.72,4.89,4.89,0,0,1,.59,2.39v5.82c0,.89-.2,1.46-.59,1.71s-1,.17-1.71-.26A4.39,4.39,0,0,1,214.48,161.28Zm2.49-.5v-6a1.65,1.65,0,0,0-.78-1.55c-.53-.3-.79-.09-.79.64v6a1.62,1.62,0,0,0,.79,1.54C216.71,161.72,217,161.5,217,160.78Z"/><path class="cls-31" d="M216.12,169.45l-1.58-.91v-1.23a4.35,4.35,0,0,0,1,.47.71.71,0,0,0,.62-.06,1.22,1.22,0,0,0,.42-.6l1,.58v11.07l-1.51-.87Z"/></g><g class="cls-24"><path class="cls-32" d="M223.09,82.88,221.51,82V80.74a4.53,4.53,0,0,0,1,.47.74.74,0,0,0,.63-.06,1.28,1.28,0,0,0,.41-.6l1,.58V92.2l-1.52-.87Z"/><path class="cls-33" d="M221.45,104.91a4.9,4.9,0,0,1-.59-2.4V96.69c0-.88.2-1.45.59-1.71s1-.17,1.71.26A4.39,4.39,0,0,1,224.87,97a5,5,0,0,1,.59,2.4v5.82c0,.88-.2,1.46-.59,1.71s-1,.17-1.71-.26A4.53,4.53,0,0,1,221.45,104.91Zm2.5-.51v-6a1.63,1.63,0,0,0-.79-1.55c-.52-.3-.78-.09-.78.64v6a1.64,1.64,0,0,0,.78,1.54C223.69,105.34,224,105.13,224,104.4Z"/><path class="cls-34" d="M223.09,113.08l-1.58-.91v-1.23a5,5,0,0,0,1,.47.74.74,0,0,0,.63-.06,1.32,1.32,0,0,0,.41-.61l1,.59V122.4l-1.52-.88Z"/><path class="cls-35" d="M221.45,135.11a4.9,4.9,0,0,1-.59-2.4v-5.82c0-.88.2-1.45.59-1.71s1-.17,1.71.26a4.39,4.39,0,0,1,1.71,1.71,4.93,4.93,0,0,1,.59,2.4v5.82c0,.88-.2,1.45-.59,1.71s-1,.17-1.71-.26A4.53,4.53,0,0,1,221.45,135.11Zm2.5-.51v-6a1.63,1.63,0,0,0-.79-1.54c-.52-.3-.78-.09-.78.64v6a1.64,1.64,0,0,0,.78,1.54C223.69,135.54,224,135.33,224,134.6Z"/><path class="cls-36" d="M221.45,150.21a4.93,4.93,0,0,1-.59-2.4V142c0-.88.2-1.45.59-1.71s1-.17,1.71.26a4.39,4.39,0,0,1,1.71,1.71,4.93,4.93,0,0,1,.59,2.4v5.82c0,.88-.2,1.45-.59,1.71s-1,.17-1.71-.26A4.53,4.53,0,0,1,221.45,150.21Zm2.5-.51v-6a1.63,1.63,0,0,0-.79-1.54c-.52-.3-.78-.09-.78.64v6a1.64,1.64,0,0,0,.78,1.54C223.69,150.64,224,150.43,224,149.7Z"/><path class="cls-37" d="M223.09,158.38l-1.58-.91v-1.24a4.65,4.65,0,0,0,1,.48.82.82,0,0,0,.63-.06,1.32,1.32,0,0,0,.41-.61l1,.59V167.7l-1.52-.88Z"/><path class="cls-38" d="M221.45,180.41a5,5,0,0,1-.59-2.4v-5.82c0-.88.2-1.45.59-1.71s1-.17,1.71.26a4.39,4.39,0,0,1,1.71,1.71,4.9,4.9,0,0,1,.59,2.4v5.82c0,.88-.2,1.45-.59,1.71s-1,.17-1.71-.26A4.53,4.53,0,0,1,221.45,180.41Zm2.5-.51v-6a1.63,1.63,0,0,0-.79-1.54c-.52-.3-.78-.09-.78.64v6a1.64,1.64,0,0,0,.78,1.55C223.69,180.84,224,180.63,224,179.9Z"/></g><g class="cls-24"><path class="cls-39" d="M228.43,93.84a4.86,4.86,0,0,1-.6-2.4V85.62q0-1.32.6-1.71c.39-.26,1-.17,1.71.26a4.43,4.43,0,0,1,1.7,1.71,4.8,4.8,0,0,1,.6,2.4V94.1q0,1.32-.6,1.71c-.39.26-1,.17-1.7-.26A4.39,4.39,0,0,1,228.43,93.84Zm2.49-.51v-6a1.64,1.64,0,0,0-.78-1.54c-.53-.3-.79-.09-.79.64v6a1.63,1.63,0,0,0,.79,1.55C230.66,94.27,230.92,94.06,230.92,93.33Z"/><path class="cls-40" d="M228.43,108.94a4.86,4.86,0,0,1-.6-2.4v-5.82c0-.88.2-1.46.6-1.71s1-.17,1.71.26a4.43,4.43,0,0,1,1.7,1.71,4.8,4.8,0,0,1,.6,2.4v5.82q0,1.32-.6,1.71c-.39.25-1,.17-1.7-.26A4.39,4.39,0,0,1,228.43,108.94Zm2.49-.51v-6a1.63,1.63,0,0,0-.78-1.54c-.53-.3-.79-.09-.79.64v6a1.63,1.63,0,0,0,.79,1.55C230.66,109.37,230.92,109.16,230.92,108.43Z"/><path class="cls-39" d="M228.43,124a4.79,4.79,0,0,1-.6-2.39v-5.82c0-.88.2-1.46.6-1.71s1-.17,1.71.26a4.43,4.43,0,0,1,1.7,1.71,4.8,4.8,0,0,1,.6,2.4v5.81c0,.89-.2,1.46-.6,1.72s-1,.17-1.7-.26A4.35,4.35,0,0,1,228.43,124Zm2.49-.5v-6a1.63,1.63,0,0,0-.78-1.54c-.53-.3-.79-.09-.79.63v6a1.63,1.63,0,0,0,.79,1.55C230.66,124.47,230.92,124.26,230.92,123.53Z"/><path class="cls-41" d="M230.07,132.21l-1.59-.92v-1.23a4.13,4.13,0,0,0,1,.47.78.78,0,0,0,.63-.05,1.3,1.3,0,0,0,.41-.61l1,.59v11.06l-1.51-.87Z"/><path class="cls-42" d="M230.07,147.31l-1.59-.92v-1.23a4.13,4.13,0,0,0,1,.47.78.78,0,0,0,.63,0,1.3,1.3,0,0,0,.41-.61l1,.59v11.06l-1.51-.87Z"/><path class="cls-43" d="M230.07,162.41l-1.59-.92v-1.23a4.13,4.13,0,0,0,1,.47.78.78,0,0,0,.63,0,1.3,1.3,0,0,0,.41-.61l1,.59v11.06l-1.51-.87Z"/><path class="cls-44" d="M228.43,184.43a4.79,4.79,0,0,1-.6-2.39v-5.82c0-.89.2-1.46.6-1.72s1-.17,1.71.26a4.39,4.39,0,0,1,1.7,1.72,4.79,4.79,0,0,1,.6,2.39v5.82q0,1.34-.6,1.71c-.39.26-1,.18-1.7-.25A4.35,4.35,0,0,1,228.43,184.43Zm2.49-.5v-6a1.65,1.65,0,0,0-.78-1.55c-.53-.3-.79-.08-.79.64v6a1.62,1.62,0,0,0,.79,1.54C230.66,184.87,230.92,184.65,230.92,183.93Z"/></g><g class="cls-24"><path class="cls-45" d="M237,90.94,235.46,90V88.79a4,4,0,0,0,1,.47.75.75,0,0,0,.62-.05,1.3,1.3,0,0,0,.42-.61l1,.59v11.06L237,99.38Z"/><path class="cls-46" d="M237,106l-1.58-.92v-1.23a4,4,0,0,0,1,.47.75.75,0,0,0,.62,0,1.3,1.3,0,0,0,.42-.61l1,.59v11.06l-1.52-.87Z"/><path class="cls-47" d="M237,121.14l-1.58-.92V119a4.35,4.35,0,0,0,1,.47.71.71,0,0,0,.62-.06,1.22,1.22,0,0,0,.42-.6l1,.59v11.06l-1.52-.87Z"/><path class="cls-48" d="M235.4,143.16a4.9,4.9,0,0,1-.59-2.4V135c0-.89.2-1.46.59-1.72s1-.17,1.71.26a4.48,4.48,0,0,1,1.71,1.72,4.89,4.89,0,0,1,.59,2.39v5.82c0,.89-.2,1.46-.59,1.71s-1,.17-1.71-.26A4.53,4.53,0,0,1,235.4,143.16Zm2.49-.5v-6a1.65,1.65,0,0,0-.78-1.55c-.52-.3-.79-.09-.79.64v6a1.63,1.63,0,0,0,.79,1.54C237.63,143.6,237.89,143.38,237.89,142.66Z"/><path class="cls-49" d="M235.4,158.26a4.9,4.9,0,0,1-.59-2.4v-5.81c0-.89.2-1.46.59-1.72s1-.17,1.71.26a4.53,4.53,0,0,1,1.71,1.71,5,5,0,0,1,.59,2.4v5.82c0,.88-.2,1.46-.59,1.71s-1,.17-1.71-.26A4.53,4.53,0,0,1,235.4,158.26Zm2.49-.5v-6a1.64,1.64,0,0,0-.78-1.55c-.52-.3-.79-.09-.79.64v6a1.63,1.63,0,0,0,.79,1.54Q237.89,158.84,237.89,157.76Z"/><path class="cls-50" d="M235.4,173.36a4.9,4.9,0,0,1-.59-2.4v-5.82c0-.88.2-1.45.59-1.71s1-.17,1.71.26a4.53,4.53,0,0,1,1.71,1.71,5,5,0,0,1,.59,2.4v5.82c0,.88-.2,1.46-.59,1.71s-1,.17-1.71-.26A4.53,4.53,0,0,1,235.4,173.36Zm2.49-.51v-6a1.64,1.64,0,0,0-.78-1.55c-.52-.3-.79-.09-.79.64v6a1.64,1.64,0,0,0,.79,1.54C237.63,173.79,237.89,173.58,237.89,172.85Z"/><path class="cls-51" d="M237,181.53l-1.58-.91v-1.23a4.8,4.8,0,0,0,1,.47.71.71,0,0,0,.62-.06,1.25,1.25,0,0,0,.42-.61l1,.59v11.07L237,190Z"/></g><g class="cls-24"><path class="cls-52" d="M165.93,50.55l-1.59-.91V48.4a4.65,4.65,0,0,0,1,.48.82.82,0,0,0,.63-.06,1.32,1.32,0,0,0,.41-.61l1,.59V59.87L165.93,59Z"/><path class="cls-53" d="M164.29,72.58a4.86,4.86,0,0,1-.6-2.4V64.36q0-1.32.6-1.71c.39-.26,1-.17,1.71.26a4.43,4.43,0,0,1,1.7,1.71,4.8,4.8,0,0,1,.6,2.4v5.82q0,1.32-.6,1.71c-.39.26-1,.17-1.7-.26A4.39,4.39,0,0,1,164.29,72.58Zm2.49-.51V66a1.64,1.64,0,0,0-.78-1.54c-.53-.3-.79-.09-.79.64v6a1.63,1.63,0,0,0,.79,1.55C166.52,73,166.78,72.8,166.78,72.07Z"/><path class="cls-54" d="M165.93,80.75l-1.59-.92V78.6a4.65,4.65,0,0,0,1,.48A.82.82,0,0,0,166,79a1.37,1.37,0,0,0,.41-.61l1,.59V90.07l-1.51-.88Z"/><path class="cls-55" d="M164.29,102.77a4.79,4.79,0,0,1-.6-2.39V94.56c0-.88.2-1.46.6-1.71s1-.17,1.71.26a4.43,4.43,0,0,1,1.7,1.71,4.8,4.8,0,0,1,.6,2.4V103c0,.89-.2,1.46-.6,1.72s-1,.17-1.7-.26A4.35,4.35,0,0,1,164.29,102.77Zm2.49-.5v-6a1.63,1.63,0,0,0-.78-1.54c-.53-.31-.79-.09-.79.63v6a1.63,1.63,0,0,0,.79,1.55C166.52,103.21,166.78,103,166.78,102.27Z"/><path class="cls-56" d="M164.29,117.87a4.79,4.79,0,0,1-.6-2.39v-5.82q0-1.34.6-1.71c.39-.26,1-.17,1.71.26a4.43,4.43,0,0,1,1.7,1.71,4.8,4.8,0,0,1,.6,2.4v5.81c0,.89-.2,1.46-.6,1.72s-1,.17-1.7-.26A4.35,4.35,0,0,1,164.29,117.87Zm2.49-.5v-6a1.63,1.63,0,0,0-.78-1.54c-.53-.31-.79-.09-.79.63v6A1.64,1.64,0,0,0,166,118C166.52,118.31,166.78,118.1,166.78,117.37Z"/><path class="cls-57" d="M165.93,126.05l-1.59-.92V123.9a4.13,4.13,0,0,0,1,.47.78.78,0,0,0,.63-.05,1.37,1.37,0,0,0,.41-.61l1,.59v11.06l-1.51-.87Z"/><path class="cls-58" d="M164.29,148.07a4.79,4.79,0,0,1-.6-2.39v-5.82q0-1.34.6-1.71c.39-.26,1-.18,1.71.25a4.46,4.46,0,0,1,1.7,1.72,4.79,4.79,0,0,1,.6,2.39v5.82c0,.89-.2,1.46-.6,1.72s-1,.17-1.7-.26A4.35,4.35,0,0,1,164.29,148.07Zm2.49-.5v-6A1.63,1.63,0,0,0,166,140c-.53-.31-.79-.09-.79.63v6a1.64,1.64,0,0,0,.79,1.55C166.52,148.51,166.78,148.3,166.78,147.57Z"/></g><g class="cls-24"><path class="cls-59" d="M171.26,61.5a4.89,4.89,0,0,1-.59-2.39V53.29c0-.89.2-1.46.59-1.71s1-.17,1.71.25a4.55,4.55,0,0,1,1.71,1.72,4.89,4.89,0,0,1,.59,2.39v5.82c0,.89-.2,1.46-.59,1.72s-1,.17-1.71-.26A4.42,4.42,0,0,1,171.26,61.5Zm2.49-.5V55a1.63,1.63,0,0,0-.78-1.54c-.52-.31-.79-.09-.79.63v6a1.66,1.66,0,0,0,.79,1.55C173.49,61.94,173.75,61.73,173.75,61Z"/><path class="cls-60" d="M171.26,76.6a4.89,4.89,0,0,1-.59-2.39V68.39c0-.89.2-1.46.59-1.72s1-.17,1.71.26a4.48,4.48,0,0,1,1.71,1.72,4.89,4.89,0,0,1,.59,2.39v5.82c0,.89-.2,1.46-.59,1.71s-1,.18-1.71-.25A4.48,4.48,0,0,1,171.26,76.6Zm2.49-.5v-6a1.65,1.65,0,0,0-.78-1.55c-.52-.3-.79-.09-.79.64v6a1.63,1.63,0,0,0,.79,1.54C173.49,77,173.75,76.82,173.75,76.1Z"/><path class="cls-61" d="M171.26,91.7a4.9,4.9,0,0,1-.59-2.4V83.49c0-.89.2-1.46.59-1.72s1-.17,1.71.26a4.48,4.48,0,0,1,1.71,1.72,4.89,4.89,0,0,1,.59,2.39V92c0,.89-.2,1.46-.59,1.71s-1,.17-1.71-.26A4.39,4.39,0,0,1,171.26,91.7Zm2.49-.5v-6a1.65,1.65,0,0,0-.78-1.55c-.52-.3-.79-.09-.79.64v6a1.63,1.63,0,0,0,.79,1.54C173.49,92.14,173.75,91.92,173.75,91.2Z"/><path class="cls-62" d="M172.9,99.88,171.32,99V97.73a4.35,4.35,0,0,0,1,.47.71.71,0,0,0,.62-.06,1.22,1.22,0,0,0,.42-.6l1,.59v11.06l-1.52-.87Z"/><path class="cls-63" d="M172.9,115l-1.58-.91v-1.23a4.35,4.35,0,0,0,1,.47.71.71,0,0,0,.62-.06,1.22,1.22,0,0,0,.42-.6l1,.59v11.06l-1.52-.87Z"/><path class="cls-64" d="M172.9,130.07l-1.58-.91v-1.23a4.35,4.35,0,0,0,1,.47.71.71,0,0,0,.62-.06,1.22,1.22,0,0,0,.42-.6l1,.58v11.07l-1.52-.87Z"/><path class="cls-65" d="M171.26,152.1a4.9,4.9,0,0,1-.59-2.4v-5.82c0-.88.2-1.45.59-1.71s1-.17,1.71.26a4.53,4.53,0,0,1,1.71,1.71,5,5,0,0,1,.59,2.4v5.82c0,.88-.2,1.45-.59,1.71s-1,.17-1.71-.26A4.46,4.46,0,0,1,171.26,152.1Zm2.49-.51v-6A1.64,1.64,0,0,0,173,144c-.52-.3-.79-.09-.79.64v6a1.64,1.64,0,0,0,.79,1.54C173.49,152.53,173.75,152.32,173.75,151.59Z"/></g><g class="cls-24"><path class="cls-66" d="M179.87,58.6l-1.58-.91V56.46a5,5,0,0,0,1,.47.74.74,0,0,0,.63-.06,1.28,1.28,0,0,0,.41-.6l1,.58V67.92L179.87,67Z"/><path class="cls-67" d="M179.87,73.7l-1.58-.91V71.55a4.65,4.65,0,0,0,1,.48A.74.74,0,0,0,180,72a1.32,1.32,0,0,0,.41-.61l1,.59V83l-1.52-.88Z"/><path class="cls-68" d="M179.87,88.8l-1.58-.91V86.65a4.65,4.65,0,0,0,1,.48.74.74,0,0,0,.63-.06,1.32,1.32,0,0,0,.41-.61l1,.59V98.12l-1.52-.88Z"/><path class="cls-69" d="M178.23,110.83a4.93,4.93,0,0,1-.59-2.4v-5.82c0-.88.2-1.45.59-1.71s1-.17,1.71.26a4.39,4.39,0,0,1,1.71,1.71,4.8,4.8,0,0,1,.59,2.4v5.82c0,.88-.19,1.45-.59,1.71s-1,.17-1.71-.26A4.53,4.53,0,0,1,178.23,110.83Zm2.5-.51v-6a1.63,1.63,0,0,0-.79-1.54c-.52-.3-.78-.09-.78.64v6a1.64,1.64,0,0,0,.78,1.54C180.47,111.26,180.73,111.05,180.73,110.32Z"/><path class="cls-70" d="M178.23,125.93a5,5,0,0,1-.59-2.4v-5.82c0-.88.2-1.45.59-1.71s1-.17,1.71.26a4.39,4.39,0,0,1,1.71,1.71,4.8,4.8,0,0,1,.59,2.4v5.82c0,.88-.19,1.45-.59,1.71s-1,.17-1.71-.26A4.53,4.53,0,0,1,178.23,125.93Zm2.5-.51v-6a1.63,1.63,0,0,0-.79-1.54c-.52-.3-.78-.09-.78.64v6a1.64,1.64,0,0,0,.78,1.54C180.47,126.36,180.73,126.15,180.73,125.42Z"/><path class="cls-71" d="M178.23,141a5,5,0,0,1-.59-2.4v-5.82c0-.88.2-1.45.59-1.71s1-.17,1.71.26a4.39,4.39,0,0,1,1.71,1.71,4.8,4.8,0,0,1,.59,2.4v5.82c0,.88-.19,1.45-.59,1.71s-1,.17-1.71-.26A4.53,4.53,0,0,1,178.23,141Zm2.5-.51v-6a1.63,1.63,0,0,0-.79-1.54c-.52-.3-.78-.09-.78.64v6a1.64,1.64,0,0,0,.78,1.55C180.47,141.46,180.73,141.25,180.73,140.52Z"/><path class="cls-72" d="M179.87,149.2l-1.58-.92v-1.23a4.65,4.65,0,0,0,1,.48.82.82,0,0,0,.63-.06,1.37,1.37,0,0,0,.41-.61l1,.59v11.07l-1.52-.88Z"/></g><g class="cls-24"><path class="cls-73" d="M185.67,69.85a4.79,4.79,0,0,1-.6-2.39V61.64q0-1.34.6-1.71c.39-.26,1-.17,1.71.26a4.43,4.43,0,0,1,1.7,1.71,4.8,4.8,0,0,1,.6,2.4v5.81c0,.89-.2,1.46-.6,1.72s-1,.17-1.7-.26A4.35,4.35,0,0,1,185.67,69.85Zm2.49-.5v-6a1.63,1.63,0,0,0-.78-1.54c-.53-.31-.79-.09-.79.63v6a1.64,1.64,0,0,0,.79,1.55C187.9,70.29,188.16,70.08,188.16,69.35Z"/><path class="cls-74" d="M187.31,78l-1.59-.92V75.88a4.13,4.13,0,0,0,1,.47.78.78,0,0,0,.63,0,1.37,1.37,0,0,0,.41-.61l1,.59V87.34l-1.51-.87Z"/><path class="cls-75" d="M185.67,100.05a4.79,4.79,0,0,1-.6-2.39V91.84q0-1.34.6-1.71c.39-.26,1-.17,1.71.25a4.46,4.46,0,0,1,1.7,1.72,4.8,4.8,0,0,1,.6,2.4v5.81c0,.89-.2,1.46-.6,1.72s-1,.17-1.7-.26A4.35,4.35,0,0,1,185.67,100.05Zm2.49-.5v-6a1.63,1.63,0,0,0-.78-1.54c-.53-.31-.79-.09-.79.63v6a1.64,1.64,0,0,0,.79,1.55C187.9,100.49,188.16,100.28,188.16,99.55Z"/><path class="cls-76" d="M185.67,115.15a4.79,4.79,0,0,1-.6-2.39v-5.82q0-1.34.6-1.71c.39-.26,1-.18,1.71.25a4.39,4.39,0,0,1,1.7,1.72,4.79,4.79,0,0,1,.6,2.39v5.82c0,.89-.2,1.46-.6,1.72s-1,.17-1.7-.26A4.35,4.35,0,0,1,185.67,115.15Zm2.49-.5v-6a1.63,1.63,0,0,0-.78-1.54c-.53-.31-.79-.09-.79.63v6a1.64,1.64,0,0,0,.79,1.55C187.9,115.59,188.16,115.37,188.16,114.65Z"/><path class="cls-77" d="M187.31,123.33l-1.59-.92v-1.23a4.13,4.13,0,0,0,1,.47.78.78,0,0,0,.63-.05,1.37,1.37,0,0,0,.41-.61l1,.59v11.06l-1.51-.87Z"/><path class="cls-78" d="M185.67,145.35a4.8,4.8,0,0,1-.6-2.4v-5.81c0-.89.2-1.46.6-1.72s1-.17,1.71.26a4.39,4.39,0,0,1,1.7,1.72,4.79,4.79,0,0,1,.6,2.39v5.82q0,1.33-.6,1.71c-.39.26-1,.17-1.7-.26A4.33,4.33,0,0,1,185.67,145.35Zm2.49-.5v-6a1.65,1.65,0,0,0-.78-1.55c-.53-.3-.79-.09-.79.64v6a1.62,1.62,0,0,0,.79,1.54C187.9,145.79,188.16,145.57,188.16,144.85Z"/><path class="cls-79" d="M187.31,153.52l-1.59-.91v-1.23a4.53,4.53,0,0,0,1,.47.74.74,0,0,0,.63-.06,1.28,1.28,0,0,0,.41-.6l1,.59v11.06l-1.51-.87Z"/></g><g class="cls-24"><path class="cls-80" d="M194.28,67,192.7,66V64.81a4.35,4.35,0,0,0,1,.47.71.71,0,0,0,.62-.06,1.22,1.22,0,0,0,.42-.6l1,.59V76.27l-1.52-.87Z"/><path class="cls-81" d="M192.64,89a4.9,4.9,0,0,1-.59-2.4V80.77c0-.89.2-1.46.59-1.72s1-.17,1.71.26A4.48,4.48,0,0,1,196.06,81a4.89,4.89,0,0,1,.59,2.39v5.82c0,.88-.2,1.46-.59,1.71s-1,.17-1.71-.26A4.46,4.46,0,0,1,192.64,89Zm2.49-.5v-6a1.64,1.64,0,0,0-.78-1.55c-.52-.3-.79-.09-.79.64v6a1.63,1.63,0,0,0,.79,1.54Q195.13,89.56,195.13,88.48Z"/><path class="cls-82" d="M194.28,97.15l-1.58-.91V95a4.8,4.8,0,0,0,1,.47.71.71,0,0,0,.62-.06,1.22,1.22,0,0,0,.42-.6l1,.58v11.07l-1.52-.88Z"/><path class="cls-83" d="M192.64,119.18a4.9,4.9,0,0,1-.59-2.4V111c0-.88.2-1.45.59-1.71s1-.17,1.71.26a4.53,4.53,0,0,1,1.71,1.71,5,5,0,0,1,.59,2.4v5.82c0,.88-.2,1.45-.59,1.71s-1,.17-1.71-.26A4.46,4.46,0,0,1,192.64,119.18Zm2.49-.51v-6a1.64,1.64,0,0,0-.78-1.55c-.52-.3-.79-.09-.79.64v6a1.64,1.64,0,0,0,.79,1.54C194.87,119.61,195.13,119.4,195.13,118.67Z"/><path class="cls-84" d="M192.64,134.28a4.9,4.9,0,0,1-.59-2.4v-5.82c0-.88.2-1.45.59-1.71s1-.17,1.71.26a4.53,4.53,0,0,1,1.71,1.71,4.93,4.93,0,0,1,.59,2.4v5.82c0,.88-.2,1.45-.59,1.71s-1,.17-1.71-.26A4.46,4.46,0,0,1,192.64,134.28Zm2.49-.51v-6a1.64,1.64,0,0,0-.78-1.54c-.52-.3-.79-.09-.79.64v6a1.64,1.64,0,0,0,.79,1.54C194.87,134.71,195.13,134.5,195.13,133.77Z"/><path class="cls-85" d="M194.28,142.45l-1.58-.91V140.3a4.46,4.46,0,0,0,1,.48.74.74,0,0,0,.62-.06,1.25,1.25,0,0,0,.42-.61l1,.59v11.07l-1.52-.88Z"/><path class="cls-86" d="M192.64,164.48a4.93,4.93,0,0,1-.59-2.4v-5.82c0-.88.2-1.45.59-1.71s1-.17,1.71.26a4.53,4.53,0,0,1,1.71,1.71,4.9,4.9,0,0,1,.59,2.4v5.82c0,.88-.2,1.45-.59,1.71s-1,.17-1.71-.26A4.46,4.46,0,0,1,192.64,164.48Zm2.49-.51v-6a1.64,1.64,0,0,0-.78-1.54c-.52-.3-.79-.09-.79.64v6a1.64,1.64,0,0,0,.79,1.54C194.87,164.91,195.13,164.7,195.13,164Z"/></g><g class="cls-24"><path class="cls-87" d="M199.61,77.91a4.93,4.93,0,0,1-.59-2.4V69.69c0-.88.2-1.45.59-1.71s1-.17,1.71.26A4.39,4.39,0,0,1,203,70a4.8,4.8,0,0,1,.59,2.4v5.82c0,.88-.19,1.45-.59,1.71s-1,.17-1.71-.26A4.53,4.53,0,0,1,199.61,77.91Zm2.5-.51v-6a1.63,1.63,0,0,0-.79-1.54c-.52-.3-.78-.09-.78.64v6a1.64,1.64,0,0,0,.78,1.54C201.85,78.34,202.11,78.13,202.11,77.4Z"/><path class="cls-88" d="M199.61,93a5,5,0,0,1-.59-2.4V84.79c0-.88.2-1.45.59-1.71s1-.17,1.71.26A4.39,4.39,0,0,1,203,85.05a4.8,4.8,0,0,1,.59,2.4v5.82c0,.88-.19,1.45-.59,1.71s-1,.17-1.71-.26A4.53,4.53,0,0,1,199.61,93Zm2.5-.51v-6a1.63,1.63,0,0,0-.79-1.54c-.52-.3-.78-.09-.78.64v6a1.64,1.64,0,0,0,.78,1.55C201.85,93.44,202.11,93.23,202.11,92.5Z"/><path class="cls-89" d="M199.61,108.11a5,5,0,0,1-.59-2.4V99.89c0-.88.2-1.45.59-1.71s1-.17,1.71.26a4.39,4.39,0,0,1,1.71,1.71,4.8,4.8,0,0,1,.59,2.4v5.82c0,.88-.19,1.45-.59,1.71s-1,.17-1.71-.26A4.53,4.53,0,0,1,199.61,108.11Zm2.5-.51v-6a1.63,1.63,0,0,0-.79-1.54c-.52-.3-.78-.09-.78.64v6a1.64,1.64,0,0,0,.78,1.55C201.85,108.54,202.11,108.33,202.11,107.6Z"/><path class="cls-90" d="M201.25,116.28l-1.58-.92v-1.23a4.65,4.65,0,0,0,1,.48.82.82,0,0,0,.63-.06,1.37,1.37,0,0,0,.41-.61l1,.59V125.6l-1.52-.88Z"/><path class="cls-91" d="M201.25,131.38l-1.58-.92v-1.23a4.13,4.13,0,0,0,1,.47.78.78,0,0,0,.63,0,1.37,1.37,0,0,0,.41-.61l1,.59v11.06l-1.52-.87Z"/><path class="cls-92" d="M201.25,146.48l-1.58-.92v-1.23a4.13,4.13,0,0,0,1,.47.78.78,0,0,0,.63-.05,1.37,1.37,0,0,0,.41-.61l1,.59v11.06l-1.52-.87Z"/><path class="cls-93" d="M199.61,168.5a4.89,4.89,0,0,1-.59-2.39v-5.82c0-.89.2-1.46.59-1.71s1-.17,1.71.25a4.41,4.41,0,0,1,1.71,1.72,4.8,4.8,0,0,1,.59,2.4v5.81c0,.89-.19,1.46-.59,1.72s-1,.17-1.71-.26A4.48,4.48,0,0,1,199.61,168.5Zm2.5-.5v-6a1.62,1.62,0,0,0-.79-1.54c-.52-.31-.78-.09-.78.63v6a1.65,1.65,0,0,0,.78,1.55C201.85,168.94,202.11,168.73,202.11,168Z"/></g><g class="cls-24"><path class="cls-94" d="M208.23,75l-1.59-.92V72.86a4.13,4.13,0,0,0,1,.47.78.78,0,0,0,.63,0,1.3,1.3,0,0,0,.41-.61l1,.59V84.32l-1.51-.87Z"/><path class="cls-95" d="M208.23,90.11l-1.59-.92V88a4.13,4.13,0,0,0,1,.47.78.78,0,0,0,.63-.05,1.3,1.3,0,0,0,.41-.61l1,.59V99.42l-1.51-.87Z"/><path class="cls-96" d="M208.23,105.21l-1.59-.92v-1.23a4.13,4.13,0,0,0,1,.47.78.78,0,0,0,.63,0,1.3,1.3,0,0,0,.41-.61l1,.59v11.06l-1.51-.87Z"/><path class="cls-97" d="M206.59,127.23a4.8,4.8,0,0,1-.59-2.4V119c0-.89.19-1.46.59-1.72s1-.17,1.71.26a4.39,4.39,0,0,1,1.7,1.72,4.79,4.79,0,0,1,.6,2.39v5.82q0,1.33-.6,1.71c-.39.26-1,.17-1.7-.26A4.33,4.33,0,0,1,206.59,127.23Zm2.49-.5v-6a1.65,1.65,0,0,0-.78-1.55c-.53-.3-.79-.09-.79.64v6a1.62,1.62,0,0,0,.79,1.54C208.82,127.67,209.08,127.45,209.08,126.73Z"/><path class="cls-98" d="M206.59,142.33a4.8,4.8,0,0,1-.59-2.4v-5.81c0-.89.19-1.46.59-1.72s1-.17,1.71.26a4.39,4.39,0,0,1,1.7,1.72,4.79,4.79,0,0,1,.6,2.39v5.82q0,1.33-.6,1.71c-.39.26-1,.17-1.7-.26A4.39,4.39,0,0,1,206.59,142.33Zm2.49-.5v-6a1.65,1.65,0,0,0-.78-1.55c-.53-.3-.79-.09-.79.64v6a1.62,1.62,0,0,0,.79,1.54C208.82,142.77,209.08,142.55,209.08,141.83Z"/><path class="cls-99" d="M206.59,157.43A4.8,4.8,0,0,1,206,155v-5.81c0-.89.19-1.46.59-1.72s1-.17,1.71.26a4.39,4.39,0,0,1,1.7,1.72,4.79,4.79,0,0,1,.6,2.39v5.82c0,.88-.2,1.46-.6,1.71s-1,.17-1.7-.26A4.39,4.39,0,0,1,206.59,157.43Zm2.49-.5v-6a1.64,1.64,0,0,0-.78-1.55c-.53-.3-.79-.09-.79.64v6a1.62,1.62,0,0,0,.79,1.54Q209.08,158,209.08,156.93Z"/><path class="cls-100" d="M208.23,165.6l-1.59-.91v-1.23a5,5,0,0,0,1,.47.74.74,0,0,0,.63-.06,1.21,1.21,0,0,0,.41-.6l1,.58v11.07l-1.51-.88Z"/></g><g class="cls-101"><g class="cls-102"><path class="cls-103" d="M57.08,179.43c-5.62-3.25-10.18-.65-10.18,5.8v36.5c0,6.45,4.56,14.31,10.18,17.55l53.7,31.16c5.62,3.24,10.17.65,10.17-5.8v-36.5c0-6.45-4.55-14.31-10.17-17.55Z"/><g class="cls-104"><polygon class="cls-105" points="87.99 225.34 92.4 227.89 92.4 230.04 87.99 227.49 87.99 225.34"/><polygon class="cls-106" points="91.04 211.2 83.78 206.97 83.78 204.81 91.04 209.05 91.04 211.2"/><polygon class="cls-107" points="90.65 222.25 90.65 224.41 82.55 219.6 82.55 217.44 90.65 222.25"/><polygon class="cls-108" points="82.14 210.6 82.14 208.44 86.26 210.84 86.26 213 82.14 210.6"/><polygon class="cls-109" points="75.91 200.16 75.91 202.31 69.21 198.33 69.21 196.17 75.91 200.16"/><polygon class="cls-110" points="91.27 215.87 88.41 214.25 88.41 212.1 91.27 213.71 91.27 215.87"/><polygon class="cls-111" points="85.9 217.15 85.9 215 89.31 217.01 89.31 219.17 85.9 217.15"/><polygon class="cls-112" points="94.56 231.31 94.56 229.16 96.41 230.23 96.41 232.38 94.56 231.31"/><polygon class="cls-113" points="83.74 213.72 83.74 215.88 76.8 211.78 76.8 209.63 83.74 213.72"/><polygon class="cls-114" points="92.81 225.68 92.81 223.52 100.15 227.8 100.15 229.95 92.81 225.68"/><polygon class="cls-115" points="80.01 207.2 80.01 209.36 71.3 204.13 71.3 201.97 80.01 207.2"/><polygon class="cls-116" points="73.39 218.91 73.39 216.75 80.21 220.76 80.21 222.92 73.39 218.91"/><polygon class="cls-117" points="85.84 226.22 82.37 224.18 82.37 222.03 85.84 224.07 85.84 226.22"/><polygon class="cls-118" points="81.66 205.73 78.06 203.59 78.06 201.44 81.66 203.58 81.66 205.73"/><polygon class="cls-119" points="98.23 217.77 107.54 223.16 107.54 225.32 98.23 219.93 98.23 217.77"/><polygon class="cls-120" points="67.05 197.05 63.76 195.12 63.76 192.96 67.05 194.89 67.05 197.05"/><polygon class="cls-121" points="57.03 208.97 57.03 206.82 71.66 215.46 71.66 217.61 57.03 208.97"/><polygon class="cls-122" points="100.39 223.51 103.83 225.5 103.83 227.65 100.39 225.66 100.39 223.51"/><polygon class="cls-123" points="102.3 229.06 111.97 234.63 111.97 236.79 102.3 231.22 102.3 229.06"/><polygon class="cls-124" points="91.46 218.28 98.27 222.27 98.27 224.43 91.46 220.44 91.46 218.28"/><polygon class="cls-125" points="98.56 233.65 98.56 231.5 106.28 236.03 106.28 238.19 98.56 233.65"/><polygon class="cls-126" points="69.15 202.83 63.76 199.6 63.76 197.44 69.15 200.68 69.15 202.83"/><polygon class="cls-127" points="96.11 218.69 93.42 217.12 93.42 214.97 96.11 216.53 96.11 218.69"/><polygon class="cls-128" points="74.65 210.51 63.76 204.08 63.76 201.92 74.65 208.35 74.65 210.51"/><polygon class="cls-129" points="80.39 218.33 63.76 208.55 63.76 206.4 80.39 216.18 80.39 218.33"/></g></g></g><g class="cls-130"><path class="cls-131" d="M179.17,114.92c-8.85-5.11-16-1-16,9.13v16.06c0,10.16,7.18,22.53,16,27.64L271,221c8.85,5.11,19.57.46,19.57-9.7V195.22c0-10.15-10.72-22-19.57-27.08Z"/><path class="cls-132" d="M178.69,115.63c-8.8-5.08-15.94-1-15.94,9.09v14.94c0,10.1,7.14,22.42,15.94,27.5L270,220.08c8.8,5.09,19.17.51,19.17-9.6V195.55c0-10.11-10.37-21.91-19.17-27Z"/><path class="cls-133" d="M178.22,116.35c-8.77-5.06-15.87-1-15.87,9V139.2c0,10.06,7.1,22.31,15.87,27.37L269,219.19c8.76,5.06,18.77.55,18.77-9.51v-13.8c0-10.06-10-21.86-18.77-26.92Z"/><path class="cls-134" d="M177.74,117.06c-8.72-5-15.79-1-15.79,9v12.68c0,10,7.07,22.2,15.79,27.24L268,218.29c8.72,5,18.37.6,18.37-9.41V196.2c0-10-9.65-21.79-18.37-26.82Z"/><path class="cls-135" d="M177.27,117.78c-8.68-5-15.72-1-15.72,9v11.56c0,10,7,22.09,15.72,27.1l89.73,52c8.68,5,18,.64,18-9.32V196.53c0-10-9.29-21.73-18-26.74Z"/><path class="cls-136" d="M176.79,118.49c-8.63-5-15.63-1-15.63,8.91v10.43c0,9.91,7,22,15.63,27L266,216.5c8.64,5,17.57.69,17.57-9.22V196.85c0-9.9-8.93-21.67-17.57-26.65Z"/><path class="cls-137" d="M176.31,119.2c-8.59-5-15.55-1-15.55,8.87v9.31c0,9.85,7,21.87,15.55,26.83L265,215.61c8.59,5,17.17.73,17.17-9.13v-9.3c0-9.86-8.58-21.61-17.17-26.57Z"/><path class="cls-138" d="M175.84,119.92c-8.55-4.94-15.48-1-15.48,8.82v8.18c0,9.81,6.93,21.76,15.48,26.69L264,214.71c8.55,4.94,16.76.78,16.76-9v-8.17c0-9.81-8.21-21.56-16.76-26.49Z"/><path class="cls-139" d="M175.36,120.63c-8.5-4.91-15.4-1-15.4,8.78v7.05c0,9.76,6.9,21.65,15.4,26.56L263,213.82c8.5,4.91,16.36.82,16.36-8.93v-7.06c0-9.75-7.86-21.49-16.36-26.4Z"/><path class="cls-140" d="M174.89,121.35c-8.46-4.89-15.32-1-15.32,8.73V136c0,9.71,6.86,21.54,15.32,26.42L262,212.92c8.47,4.89,16,.88,16-8.83v-5.93c0-9.71-7.5-21.44-16-26.32Z"/><path class="cls-141" d="M174.41,122.06c-8.42-4.86-15.24-1-15.24,8.69v4.8c0,9.66,6.82,21.43,15.24,26.29L261,212c8.42,4.86,15.57.92,15.57-8.74v-4.8c0-9.66-7.15-21.38-15.57-26.24Z"/><path class="cls-142" d="M173.94,122.77c-8.38-4.83-15.17-1-15.17,8.65v3.67c0,9.61,6.79,21.32,15.17,26.16L260,211.13c8.38,4.84,15.16,1,15.16-8.64v-3.68c0-9.61-6.78-21.32-15.16-26.15Z"/></g><path class="cls-143" d="M270.15,220.26,169.48,162c-7.24-4.18-13.16-15.5-13.16-25.15v-6.86c0-9.65,5.92-14.13,13.16-10L270.15,178.3c7.24,4.18,13.16,15.5,13.16,25.15v6.86C283.31,220,277.39,224.44,270.15,220.26Z"/><path class="cls-144" d="M270.15,178.3,169.48,120c-7.24-4.18-13.16.3-13.16,10v1.48c0-9.65,5.92-14.13,13.16-9.95l100.67,58.31c7.24,4.18,13.16,15.5,13.16,25.15v-1.48C283.31,193.8,277.39,182.48,270.15,178.3Z"/><ellipse class="cls-145" cx="187.75" cy="152.8" rx="10.69" ry="18.52" transform="translate(-51.45 115.64) rotate(-30.31)"/><ellipse class="cls-146" cx="218.51" cy="171.11" rx="10.69" ry="18.52" transform="translate(-56.48 133.67) rotate(-30.31)"/><ellipse class="cls-147" cx="249.51" cy="188.77" rx="10.69" ry="18.52" transform="translate(-61.16 151.73) rotate(-30.31)"/><g class="cls-148"><path class="cls-149" d="M188.42,167.53c-7.25-4.18-13.13-14.33-13.13-22.65,0-4.1,1.43-7,3.74-8.37-2.7,1.21-4.41,4.23-4.41,8.7,0,8.33,5.88,18.47,13.13,22.66,3.69,2.12,7,2.3,9.4.87C194.83,169.78,191.77,169.47,188.42,167.53Z"/><path class="cls-150" d="M219.18,185.84c-7.25-4.18-13.13-14.33-13.13-22.65,0-4.1,1.43-7,3.74-8.37-2.7,1.21-4.41,4.23-4.41,8.7,0,8.33,5.88,18.47,13.13,22.66,3.69,2.12,7,2.3,9.4.87C225.58,188.09,222.53,187.78,219.18,185.84Z"/><path class="cls-151" d="M250.18,203.51c-7.25-4.19-13.13-14.33-13.13-22.65,0-4.1,1.43-7,3.74-8.37-2.7,1.2-4.41,4.22-4.41,8.7,0,8.32,5.88,18.47,13.13,22.65,3.69,2.13,7,2.31,9.4.88C256.59,205.75,253.53,205.45,250.18,203.51Z"/></g><path class="cls-152" d="M267.66,192.23v13.48l7.28-2.54Zm-98-43.6V135.15l-7.28,2.54Z"/><g class="cls-153"><path class="cls-154" d="M180.55,156.47a7.6,7.6,0,0,1-.91-3.73v-9.49c0-1.38.3-2.27.91-2.68s1.49-.27,2.65.4a6.84,6.84,0,0,1,2.65,2.66,7.64,7.64,0,0,1,.91,3.74v1.86l-2.29-1.32v-2a2.47,2.47,0,0,0-1.21-2.34c-.8-.47-1.21-.15-1.21.94v9.87a2.46,2.46,0,0,0,1.21,2.31c.81.47,1.21.16,1.21-.91V153l2.29,1.32v2.5c0,1.38-.3,2.27-.91,2.67s-1.49.28-2.65-.39A6.87,6.87,0,0,1,180.55,156.47Z"/><path class="cls-155" d="M188.74,157l-1.08-.62.18-1.87,1.08.62.42-4.38-1.1-.63.17-1.87,1.1.64.38-3.85,1.91,1.1-.38,3.85,1.57.9.37-3.84,1.91,1.1L194.9,152l1.12.65-.17,1.86-1.13-.64-.41,4.37,1.12.65-.18,1.87-1.12-.65-.46,4.78-1.92-1.1.47-4.78-1.57-.91-.46,4.79-1.91-1.11Zm3.65.14.42-4.38-1.56-.9-.42,4.38Z"/><path class="cls-156" d="M212.67,176.77v-2.53a4.65,4.65,0,0,0,.79.56q.72.42,1.08.21c.23-.15.35-.5.35-1.08V160.38l2.42,1.4v13.48q0,2.16-.87,2.73c-.58.37-1.46.21-2.65-.48A8.7,8.7,0,0,1,212.67,176.77Z"/><path class="cls-157" d="M219.53,179.83a7.88,7.88,0,0,1-.9-3.81v-1l2.29,1.32v1.21a2.57,2.57,0,0,0,1.25,2.44q.62.36.93.12c.22-.15.32-.54.32-1.16a5.77,5.77,0,0,0-.44-2.21,18.73,18.73,0,0,0-1.62-3,22.9,22.9,0,0,1-2.09-3.95,8.63,8.63,0,0,1-.6-3.11c0-1.39.31-2.29.93-2.71s1.51-.27,2.68.41a6.66,6.66,0,0,1,2.63,2.66,8,8,0,0,1,.89,3.81v.73l-2.29-1.32v-.91a3.21,3.21,0,0,0-.31-1.5,2.2,2.2,0,0,0-.9-.94c-.81-.46-1.21-.13-1.21,1a5.45,5.45,0,0,0,.45,2.06,21.14,21.14,0,0,0,1.64,3,22.26,22.26,0,0,1,2.09,4,9.35,9.35,0,0,1,.57,3.23q0,2.18-.93,2.79c-.63.42-1.53.28-2.72-.4A6.81,6.81,0,0,1,219.53,179.83Z"/><g class="cls-158"><path class="cls-159" d="M245.91,177.48l3.75,2.17a7.49,7.49,0,0,1,2.85,2.68,7.38,7.38,0,0,1,.9,3.73v1.13c0,1.92-.55,2.82-1.66,2.69v.05a4.59,4.59,0,0,1,1.3,2,9.14,9.14,0,0,1,.38,2.83v3.24c0,.53,0,1,0,1.31a5.41,5.41,0,0,0,.23,1.1L251.13,199A6.77,6.77,0,0,1,251,198c0-.28,0-.77,0-1.45v-3.38a4.62,4.62,0,0,0-.35-2,3,3,0,0,0-1.23-1.21l-.88-.5v7.92L245.91,196Zm3.45,9.91q.76.44,1.14.21c.25-.15.38-.58.38-1.29v-1.42a3.64,3.64,0,0,0-.31-1.63,2.4,2.4,0,0,0-1-1l-1.15-.66v5.28Z"/></g></g></g></g></g></svg>