<svg xmlns="http://www.w3.org/2000/svg" xmlns:xlink="http://www.w3.org/1999/xlink" id="eYc1sMPWEpj1" viewBox="0 -20 436.28 320" shape-rendering="geometricPrecision" text-rendering="geometricPrecision"><defs><filter id="eYc1sMPWEpj41-filter" x="-400%" width="600%" y="-400%" height="600%"><feGaussianBlur id="eYc1sMPWEpj41-filter-drop-shadow-0-blur" in="SourceAlpha" stdDeviation="0,0"/><feOffset id="eYc1sMPWEpj41-filter-drop-shadow-0-offset" dx="0" dy="0" result="tmp"/><feFlood id="eYc1sMPWEpj41-filter-drop-shadow-0-flood" flood-color="#000"/><feComposite id="eYc1sMPWEpj41-filter-drop-shadow-0-composite" operator="in" in2="tmp"/><feMerge id="eYc1sMPWEpj41-filter-drop-shadow-0-merge"><feMergeNode id="eYc1sMPWEpj41-filter-drop-shadow-0-merge-node-1"/><feMergeNode id="eYc1sMPWEpj41-filter-drop-shadow-0-merge-node-2" in="SourceGraphic"/></feMerge></filter><linearGradient id="eYc1sMPWEpj58-fill" x1="58.47" y1="105.74" x2="415.57" y2="105.74" spreadMethod="pad" gradientUnits="userSpaceOnUse" gradientTransform="translate(0 0)"><stop id="eYc1sMPWEpj58-fill-0" offset="0%" stop-color="#ffc485"/><stop id="eYc1sMPWEpj58-fill-1" offset="100%" stop-color="#d03e3e"/></linearGradient><linearGradient id="eYc1sMPWEpj58-stroke" x1="0" y1="0.5" x2="1" y2="0.5" spreadMethod="pad" gradientUnits="objectBoundingBox" gradientTransform="translate(0 0)"><stop id="eYc1sMPWEpj58-stroke-0" offset="0%" stop-color="#ec7f3c"/><stop id="eYc1sMPWEpj58-stroke-1" offset="100%" stop-color="#ecab66"/></linearGradient></defs><g><g><path d="M21,247.3c4.81,2.78,4.81,7.29,0,10.06s-12.61,2.78-17.42,0-4.81-7.28,0-10.06s12.64-2.78,17.42,0Z" fill="#77008f"/><path d="M357.11,229.35c5.42,3.13,5.42,8.21,0,11.34s-14.21,3.13-19.63,0-5.41-8.21,0-11.34s14.21-3.13,19.63,0Z" fill="#77008f"/><path d="M154.25,159L79.71,202c-2.755666,1.400211-6.014334,1.400211-8.77,0v0c-2.42-1.4-2.42-3.67,0-5.07l74.55-43.06c2.752175-1.40007,6.007825-1.40007,8.76,0v0c2.43,1.44,2.43,3.71,0,5.13Z" fill="#77008f"/><path d="M211.84,125.71l-39.39,22.76c-2.757972,1.390547-6.012028,1.390547-8.77,0v0c-2.42-1.4-2.42-3.67,0-5.07l39.39-22.76c2.755666-1.400211,6.014334-1.400211,8.77,0v0c2.42,1.36,2.42,3.67,0,5.07Z" fill="#77008f"/><path d="M176.35,123.61l-74.54,43.07c-2.757972,1.390547-6.012028,1.390547-8.77,0v0c-2.42-1.4-2.42-3.67,0-5.07l74.54-43.06c2.755666-1.400211,6.014334-1.400211,8.77,0v0c2.42,1.45,2.42,3.66,0,5.06Z" fill="#77008f"/><path d="M271.67,68.55l-74.54,43.06c-2.755666,1.400211-6.014334,1.400211-8.77,0v0c-2.42-1.4-2.42-3.66,0-5.06L262.9,63.48c2.757972-1.390547,6.012028-1.390547,8.77,0v0c2.42,1.4,2.42,3.67,0,5.07Z" fill="#77008f"/><path d="M314.48,89l-74.54,43.06c-2.755666,1.400211-6.014334,1.400211-8.77,0v0c-2.42-1.4-2.42-3.67,0-5.06l74.54-43.07c2.757972-1.390547,6.012028-1.390547,8.77,0v0c2.42,1.41,2.42,3.68,0,5.07Z" fill="#77008f"/><path d="M173.81,170.27L152,182.88c-2.755666,1.400211-6.014334,1.400211-8.77,0v0c-2.42-1.4-2.42-3.67,0-5.07L165,165.21c2.755666-1.400211,6.014334-1.400211,8.77,0v0c2.46,1.4,2.46,3.66.04,5.06Z" fill="#77008f"/><path d="M360.88,62.2L339.06,74.81c-2.752175,1.40007-6.007825,1.40007-8.76,0v0c-2.43-1.4-2.43-3.67,0-5.07l21.81-12.6c2.755666-1.400211,6.014334-1.400211,8.77,0v0c2.42,1.4,2.42,3.67,0,5.06Z" fill="#77008f"/><path d="M191.18,92.45l-74.54,43.06c-2.755666,1.400211-6.014334,1.400211-8.77,0v0c-2.42-1.39-2.42-3.66,0-5.06l74.54-43.06c2.755666-1.400211,6.014334-1.400211,8.77,0v0c2.42,1.4,2.42,3.66,0,5.06Z" fill="#77008f"/><path d="M237.58,65.65l-21.82,12.6c-2.755666,1.400211-6.014334,1.400211-8.77,0v0c-2.42-1.4-2.42-3.66,0-5.06l21.82-12.61c2.755666-1.400211,6.014334-1.400211,8.77,0v0c2.42,1.42,2.42,3.67,0,5.07Z" fill="#77008f"/><path d="M274.23,241.68l-74.54,43.06c-2.755666,1.400211-6.014334,1.400211-8.77,0v0c-2.42-1.4-2.42-3.67,0-5.06l74.54-43.07c2.757972-1.390547,6.012028-1.390547,8.77,0v0c2.42,1.39,2.42,3.67,0,5.07Z" fill="#77008f"/><path d="M331.82,208.41l-39.4,22.76c-2.752175,1.40007-6.007825,1.40007-8.76,0v0c-2.43-1.4-2.43-3.67,0-5.07l39.39-22.75c2.755666-1.400211,6.014334-1.400211,8.77,0v0c2.42,1.4,2.42,3.65,0,5.06Z" fill="#77008f"/><path d="M296.33,206.32l-74.54,43.06c-2.755666,1.400211-6.014334,1.400211-8.77,0v0c-2.42-1.4-2.42-3.67,0-5.07l74.54-43.06c2.755666-1.400211,6.014334-1.400211,8.77,0v0c2.42,1.4,2.42,3.67,0,5.07Z" fill="#77008f"/><path d="M391.65,151.25l-74.54,43.07c-2.755666,1.400211-6.014334,1.400211-8.77,0v0c-2.42-1.4-2.42-3.67,0-5.07l74.54-43.06c2.755666-1.400211,6.014334-1.400211,8.77,0v0c2.42,1.4,2.42,3.67,0,5.06Z" fill="#77008f"/><path d="M434.46,171.71l-74.54,43.07c-2.757972,1.390547-6.012028,1.390547-8.77,0v0c-2.42-1.4-2.42-3.67,0-5.07l74.54-43.06c2.755666-1.400211,6.014334-1.400211,8.77,0v0c2.42,1.4,2.42,3.67,0,5.06Z" fill="#77008f"/><path d="M293.79,253L272,265.58c-2.755666,1.400211-6.014334,1.400211-8.77,0v0c-2.42-1.4-2.42-3.67,0-5.06L285,247.91c2.755666-1.400211,6.014334-1.400211,8.77,0v0c2.44,1.4,2.44,3.67.02,5.09Z" fill="#77008f"/><path d="M311.16,175.16l-74.54,43.06c-2.755666,1.400211-6.014334,1.400211-8.77,0v0c-2.42-1.4-2.42-3.67,0-5.07l74.54-43.06c2.755666-1.400211,6.014334-1.400211,8.77,0v0c2.42,1.4,2.42,3.67,0,5.07Z" fill="#77008f"/><path d="M357.56,148.35L335.74,161c-2.755666,1.400211-6.014334,1.400211-8.77,0v0c-2.42-1.4-2.42-3.67,0-5.07l21.82-12.6c2.755666-1.400211,6.014334-1.400211,8.77,0v0c2.44,1.36,2.44,3.67,0,5.02Z" fill="#77008f"/><path d="M223.1,184.82l-74.55,43.06c-2.755666,1.400211-6.014334,1.400211-8.77,0v0c-2.42-1.4-2.42-3.66,0-5.06l74.55-43.06c2.755666-1.400211,6.014334-1.400211,8.77,0v0c2.42,1.39,2.42,3.66,0,5.06Z" fill="#77008f"/><path d="M280.68,151.55l-39.39,22.76c-2.755666,1.400211-6.014334,1.400211-8.77,0v0c-2.42-1.4-2.42-3.66,0-5.06l39.39-22.76c2.755666-1.400211,6.014334-1.400211,8.77,0v0c2.42,1.4,2.42,3.67,0,5.06Z" fill="#77008f"/><path d="M245.19,149.46l-74.54,43.06c-2.755666,1.400211-6.014334,1.400211-8.77,0v0c-2.42-1.4-2.42-3.67,0-5.06l74.55-43.07c2.754489-1.390385,6.005511-1.390385,8.76,0v0c2.43,1.4,2.43,3.67,0,5.07Z" fill="#77008f"/><path d="M340.51,94.4L266,137.46c-2.755666,1.400211-6.014334,1.400211-8.77,0v0c-2.42-1.4-2.42-3.67,0-5.07l74.54-43.06c2.755666-1.400211,6.014334-1.400211,8.77,0v0c2.39,1.4,2.39,3.67-.03,5.07Z" fill="#77008f"/><path d="M383.32,114.86l-74.54,43.06c-2.755666,1.400211-6.014334,1.400211-8.77,0v0c-2.42-1.4-2.42-3.67,0-5.07l74.55-43.06c2.752175-1.40007,6.007825-1.40007,8.76,0v0c2.42,1.4,2.42,3.67,0,5.07Z" fill="#77008f"/><path d="M242.65,196.12l-21.82,12.6c-2.752175,1.40007-6.007825,1.40007-8.76,0v0c-2.43-1.4-2.43-3.66,0-5.06l21.81-12.61c2.755666-1.400211,6.014334-1.400211,8.77,0v0c2.42,1.4,2.42,3.67,0,5.07Z" fill="#77008f"/><path d="M429.72,88.05l-21.81,12.6c-2.755666,1.400211-6.014334,1.400211-8.77,0v0c-2.42-1.39-2.42-3.66,0-5.06L421,83c2.752175-1.40007,6.007825-1.40007,8.76,0v0c2.39,1.38,2.39,3.65-.04,5.05Z" fill="#77008f"/><path d="M260,118.3l-74.54,43.06c-2.755666,1.400211-6.014334,1.400211-8.77,0v0c-2.42-1.4-2.42-3.67,0-5.06l74.54-43.07c2.755666-1.400211,6.014334-1.400211,8.77,0v0c2.44,1.4,2.44,3.67,0,5.07Z" fill="#77008f"/><path d="M306.42,91.49L284.6,104.1c-2.752175,1.40007-6.007825,1.40007-8.76,0v0c-2.42-1.4-2.42-3.67,0-5.07l21.82-12.6c2.752175-1.40007,6.007825-1.40007,8.76,0v0c2.43,1.4,2.43,3.66,0,5.06Z" fill="#77008f"/><path d="M82.77,133.68L12.24,174.42c-2.603269,1.33013-5.686731,1.33013-8.29,0h.05c-2.29-1.32-2.29-3.47,0-4.79l70.52-40.74c2.609097-1.32052,5.690903-1.32052,8.3,0v0c2.24,1.32,2.24,3.47-.05,4.79Z" fill="#77008f"/><path d="M137.25,102.21L100,123.74c-2.609097,1.32052-5.690903,1.32052-8.3,0v0c-2.29-1.32-2.29-3.47,0-4.79L129,97.42c2.609097-1.32052,5.690903-1.32052,8.3,0v0c2.24,1.32,2.24,3.47-.05,4.79Z" fill="#77008f"/><path d="M103.67,100.23L33.15,141c-2.60561,1.320369-5.68439,1.320369-8.29,0v0c-2.29-1.33-2.29-3.47,0-4.79L95.38,95.44c2.603269-1.33013,5.686731-1.33013,8.29,0v0c2.33,1.32,2.33,3.47,0,4.79Z" fill="#77008f"/><path d="M193.85,48.13L123.33,88.87c-2.606764,1.330259-5.693236,1.330259-8.3,0v0c-2.29-1.32-2.29-3.46,0-4.79l70.53-40.74c2.60561-1.320369,5.68439-1.320369,8.29,0v0c2.29,1.33,2.29,3.47,0,4.79Z" fill="#77008f"/><path d="M234.35,67.49l-70.52,40.74c-2.60561,1.320369-5.68439,1.320369-8.29,0v0c-2.29-1.32-2.29-3.47,0-4.79L226.06,62.7c2.60561-1.320369,5.68439-1.320369,8.29,0v0c2.29,1.3,2.29,3.47,0,4.79Z" fill="#77008f"/><path d="M101.27,144.37L80.63,156.3c-2.609097,1.32052-5.690903,1.32052-8.3,0v0c-2.29-1.33-2.29-3.47,0-4.8L93,139.58c2.609097-1.32052,5.690903-1.32052,8.3,0v0c2.26,1.32,2.26,3.47-.03,4.79Z" fill="#77008f"/><path d="M278.25,42.13L257.61,54.06c-2.60561,1.320369-5.68439,1.320369-8.29,0v0c-2.3-1.33-2.3-3.47,0-4.8L270,37.34c2.60561-1.320369,5.68439-1.320369,8.29,0v0c2.25,1.32,2.25,3.47-.04,4.79Z" fill="#77008f"/><path d="M117.7,70.75L47.18,111.49c-2.60561,1.320369-5.68439,1.320369-8.29,0v0c-2.3-1.33-2.3-3.47,0-4.79L109.41,66c2.603269-1.33013,5.686731-1.33013,8.29,0v0c2.3,1.28,2.3,3.42,0,4.75Z" fill="#77008f"/><path d="M161.6,45.39L141,57.31c-2.606764,1.330259-5.693236,1.330259-8.3,0v0c-2.29-1.32-2.29-3.47,0-4.79L153.31,40.6c2.603269-1.33013,5.686731-1.33013,8.29,0v0c2.29,1.32,2.29,3.47,0,4.79Z" fill="#77008f"/><g xmlns="http://www.w3.org/2000/svg" id="eYc1sMPWEpj41" transform="translate(-6.494158 -7.420938)"><path d="M56.18,78.86c1.318487,1.631063,2.942051,2.989694,4.78,4L276.72,207.44c2.521148,1.460508,5.258746,2.510314,8.11,3.11c2.870813.606001,5.79595.917614,8.73.93c5.871814.151607,11.682075-1.226865,16.86-4l102.67-59.3c2.9-1.67,6.05-4.56,6.8-7.82.119684-.545224.180035-1.101795.18-1.66v15.3c0,4.2-3.25,7.58-7,9.73L310.42,223c-2.521615,1.45733-5.259235,2.503769-8.11,3.1-8.33,1.78-18.25,1.14-25.59-3.1L61,98.37c-.946483-.547243-1.852176-1.162178-2.71-1.84-2.34-1.85-4.26-5-4.26-8v0-15.46v0c.1056,2.104885.85622,4.126322,2.15,5.79Z" fill="#a9a8c6"/><path d="M370.44,177.55c.498901-.350689,1.138579-.432986,1.71-.22.588313.339916.921387.994308.85,1.67v1.09c-.100684,1.7839-1.043625,3.41363-2.54,4.39l-17.36,10c-.49845.433761-1.217079.503843-1.789943.174559s-.873998-.985529-.750057-1.634559v-1.02c.100621-1.781251,1.043965-3.407962,2.54-4.38Z" fill="#1c1a2a"/><path d="M331.89,199.54c2.42-2.45,4.74-1.48,4.67,1.06-.1,3.81-3.87,7.53-5.92,6.25-.291381-.192973-.531587-.453767-.7-.76-.30337-.620092-.398082-1.321662-.27-2c.103308-.833552.343184-1.644402.71-2.4.201262-.297157.381695-.607901.54-.93.279667-.439549.604789-.848465.97-1.22Z" fill="#1c1a2a"/><path d="M60.38,77.9c1.77,2.14,3.19,2.71,9.4,6.34.11.07,210.25,121.5,211.35,122c3.904907,1.78412,8.157227,2.678986,12.45,2.62v2.59c-2.93405-.012386-5.859187-.323999-8.73-.93-2.851254-.599686-5.588852-1.649492-8.11-3.11L61,82.82c-1.837949-1.010306-3.461513-2.368937-4.78-4-1.311268-1.644161-2.086177-3.651243-2.22-5.75-.033836-.6415.023399-1.284559.17-1.91.76-3.26,3.9-6.15,6.8-7.82L163.63,4c5.175942-2.768855,10.981841-4.14711,16.85-4v2.59c-2.230816-.002032-4.455903.225838-6.64.68-4.44.95-6.59,2.3-9.9,4.28s7.63-4.47-38.54,22.2c-7.51,4.34-15,8.76-22.5,13.1s-15.06,8.58-22.56,13c-3.12,1.83-6.24,3.69-9.37,5.46-3.051139,1.578879-6.003272,3.342145-8.84,5.28-3.93,3.1-4.96,7.46-1.75,11.31Z" fill="#e1dfea"/><polygon points="112.15,120.62 113.87,119.63 94.94,108.69 93.22,109.69 112.15,120.62" fill="#e1dfea"/><polygon points="113.87,122.02 113.87,119.63 112.15,120.62 112.15,123.01 113.87,122.02" fill="#7c7ca0"/><polygon points="112.15,123.01 112.15,120.62 93.22,109.69 93.22,112.08 112.15,123.01" fill="#7c7ca0"/><path d="M320.82,209.63v0c.38833-.249177.63374-.669348.66-1.13v0c0-.4-.29-.56-.66-.35v0c-.38822.246044-.636798.661578-.67,1.12v0c0,.41.3.57.67.36Z" fill="#1c1a2a"/><path d="M407.59,163.1v0c.587074-.396328.956601-1.043001,1-1.75v-4.92c0-.63-.47-.88-1-.55v0c-.588231.395253-.958115,1.042549-1,1.75v4.92c-.04.63.41.88,1,.55Z" fill="#1c1a2a"/><path d="M403.46,165.48v0c.587864-.390986.958119-1.035231,1-1.74v-4.92c0-.63-.47-.88-1-.55v0c-.587864.390986-.958119,1.035231-1,1.74v4.92c-.04.63.43.88,1,.55Z" fill="#1c1a2a"/><path d="M399.33,167.87v0c.588231-.395253.958115-1.042549,1-1.75v-4.91c0-.64-.47-.88-1-.56v0c-.588231.395253-.958115,1.042549-1,1.75v4.92c-.04.68.43.88,1,.55Z" fill="#1c1a2a"/><path d="M395.2,170.26v0c.587074-.396328.956601-1.043001,1-1.75v-4.92c0-.63-.47-.88-1-.55v0c-.587864.390986-.958119,1.035231-1,1.74v4.92c-.04.63.43.88,1,.56Z" fill="#1c1a2a"/><path d="M391.07,172.64v0c.585542-.393156.955075-1.036145,1-1.74v-4.9c0-.63-.47-.88-1-.55v0c-.590231.388763-.961232,1.034304-1,1.74v4.92c-.07.61.43.89,1,.53Z" fill="#1c1a2a"/><path d="M386.94,175v0c.587074-.396328.956601-1.043001,1-1.75v-4.92c0-.63-.47-.88-1-.55v0c-.590581.393063-.961194,1.041637-1,1.75v4.92c-.04.66.43.9,1,.55Z" fill="#1c1a2a"/><path d="M413.09,148.14l-102.67,59.3c-5.177925,2.773135-10.988186,4.151607-16.86,4v-2.59c3.871838.033809,7.713249-.686243,11.31-2.12c1.817216-.810273,3.569099-1.759766,5.24-2.84c3.35-2-7.63,4.47,38.54-22.2c7.51-4.34,15-8.76,22.5-13.1s15.07-8.58,22.56-13c3.12-1.83,6.24-3.68,9.39-5.46c6.21-3.5,9.14-4.86,11.06-7.63c2.52-3.61,1.94-8.39-4.27-12.06-.24-.15-216-124.82-217-125.3-3.909632-1.780501-8.164379-2.675159-12.46-2.62v-2.59c2.937325.012955,5.86572.324558,8.74.93c2.875553.607529,5.636529,1.667366,8.18,3.14L413.09,128.67c1.843732,1.006015,3.471352,2.365197,4.79,4c1.356025,1.712569,2.123988,3.816577,2.19,6c.000035.558205-.060316,1.114776-.18,1.66-.75,3.25-3.89,6.14-6.8,7.81Z" fill="#e1dfea"/><path d="M196.9,7.5c-2.51-1.45-3.91-2.26-4-2.29-3.912796-1.781629-8.171046-2.676306-12.47-2.62-2.227823.001873-4.449534.233091-6.63.69-4.45.94-6.6,2.29-9.9,4.27-3.11,1.88,6.17-3.6-29.71,17.09l-8.84,5.11c-7.51,4.35-15,8.77-22.49,13.1q-3.09,1.78-6.19,3.54c-5.46,3.13-10.93,6.24-16.38,9.43-3.12,1.84-6.23,3.69-9.37,5.46-3.049842,1.581208-6.001837,3.34439-8.84,5.28-3.91,3.14-4.94,7.49-1.73,11.35c1.77,2.13,3.19,2.7,9.4,6.33L161,137c56.92,32.87,119.5,69,120.11,69.31c3.903008,1.789882,8.156642,2.685025,12.45,2.62c3.867954.037222,7.706114-.679461,11.3-2.11c1.815214-.811701,3.563918-1.764628,5.23-2.85c3.36-2-7.62,4.47,38.55-22.19c7.51-4.35,15-8.77,22.5-13.11s15.07-8.58,22.57-13c3.11-1.83,6.23-3.68,9.37-5.46c6.23-3.49,9.15-4.86,11.07-7.63c2.43-3.48,2-8-3.57-11.62-.23-.16-.46-.3-.7-.44s-183.46-106.04-212.98-123.02Z" fill="#e1dfea"/><path d="M410.6,131c5.55,3.6,6,8.14,3.57,11.62-1.92,2.77-4.84,4.14-11.07,7.63-3.14,1.78-6.26,3.63-9.37,5.46-7.5,4.39-15.05,8.64-22.57,13s-15,8.76-22.5,13.11c-46.17,26.66-35.19,20.18-38.55,22.19-1.666082,1.085372-3.414786,2.038299-5.23,2.85-7.22,3-17.09,2.76-23.75-.51-1-.48-183.73-106.07-211.36-122-6.21-3.63-7.63-4.2-9.4-6.33-3.21-3.86-2.18-8.21,1.73-11.35c2.13-1.7,98.82-57.2,101.82-59c3.3-2,5.45-3.33,9.9-4.27c6.8-1.45,14.09-.51,19.1,1.93.13-.06-5.72-3.44,217.68,125.67Z" fill="url(#eYc1sMPWEpj58-fill)" stroke="url(#eYc1sMPWEpj58-stroke)"/><path d="M129.78,32.76c1.052589-.549545,2.307411-.549545,3.36,0l1.25.71-22.85,13.21c-1.063169.534941-2.316831.534941-3.38,0L106.92,46Z" fill="#090000"/><path d="M133.14,30.43l1.58.91c.444889.1115.756895.511351.756895.97s-.312006.8585-.756895.97l-.33.19-1.25-.71c-1.052589-.549545-2.307411-.549545-3.36,0L106.92,46l-.33-.2c-.381148-.175254-.645519-.534044-.7-.95v0c.027184-.438283.297495-.824441.7-1l23.19-13.39c1.048961-.553906,2.301316-.565088,3.36-.03Z" fill="#1a2738"/><g id="eYc1sMPWEpj61" opacity="0.27" transform="translate(0 0)"><path d="M153.15,57.64l-46.79,27c-1.730072.870202-3.769928.870202-5.5,0v0c-1.52-.88-1.52-2.31,0-3.18l46.79-27c1.727766-.879864,3.772234-.879864,5.5,0v0c1.52.88,1.52,2.31,0,3.18Z" fill="#f2f8ff"/><path d="M150,72.17L117.36,91c-1.727766.879864-3.772234.879864-5.5,0v0c-1.52-.88-1.52-2.3,0-3.18L144.51,69c1.725826-.873241,3.764174-.873241,5.49,0v0c1.54.87,1.54,2.29,0,3.17Z" fill="#f2f8ff"/><path d="M161,78.52L128.37,97.39c-1.731258.880003-3.778742.880003-5.51,0v0c-1.52-.88-1.52-2.3,0-3.18l32.66-18.87c1.730072-.870202,3.769928-.870202,5.5,0v0c1.52.88,1.52,2.31-.02,3.18Z" fill="#f2f8ff"/></g><g opacity="0.27"><path d="M244.43,44.31l-46.79,27c-1.730072.870202-3.769928.870202-5.5,0v0c-1.52-.88-1.52-2.3,0-3.18l46.79-27c1.727766-.879864,3.772234-.879864,5.5,0v0c1.57.87,1.57,2.3,0,3.18Z" fill="#717f90"/><path d="M241.3,58.83L208.65,77.69c-1.731258.880003-3.778742.880003-5.51,0v0c-1.52-.88-1.52-2.3,0-3.18L235.8,55.65c1.727766-.879864,3.772234-.879864,5.5,0v0c1.52.88,1.52,2.35,0,3.18Z" fill="#717f90"/><path d="M252.3,65.18L219.65,84.05c-1.731258.880003-3.778742.880003-5.51,0v0c-1.52-.88-1.52-2.3,0-3.18L246.8,62c1.730072-.870202,3.769928-.870202,5.5,0v0c1.52.88,1.52,2.31,0,3.18Z" fill="#717f90"/></g><g id="eYc1sMPWEpj69" transform="matrix(0.455837 0 0 0.421983 146.081095 85.511159)" opacity="0.27"><path d="M153.15,57.64l-46.79,27c-1.730072.870202-3.769928.870202-5.5,0v0c-1.52-.88-1.52-2.31,0-3.18l46.79-27c1.727766-.879864,3.772234-.879864,5.5,0v0c1.52.88,1.52,2.31,0,3.18Z" fill="#f2f8ff"/><path d="M150,72.17L117.36,91c-1.727766.879864-3.772234.879864-5.5,0v0c-1.52-.88-1.52-2.3,0-3.18L144.51,69c1.725826-.873241,3.764174-.873241,5.49,0v0c1.54.87,1.54,2.29,0,3.17Z" fill="#f2f8ff"/><path d="M161,78.52L128.37,97.39c-1.731258.880003-3.778742.880003-5.51,0v0c-1.52-.88-1.52-2.3,0-3.18l32.66-18.87c1.730072-.870202,3.769928-.870202,5.5,0v0c1.52.88,1.52,2.31-.02,3.18Z" fill="#f2f8ff"/></g><g id="eYc1sMPWEpj73" transform="matrix(0.455837 0 0 0.421983 226.947063 127.654906)" opacity="0.27"><path d="M153.15,57.64l-46.79,27c-1.730072.870202-3.769928.870202-5.5,0v0c-1.52-.88-1.52-2.31,0-3.18l46.79-27c1.727766-.879864,3.772234-.879864,5.5,0v0c1.52.88,1.52,2.31,0,3.18Z" fill="#f2f8ff"/><path d="M150,72.17L117.36,91c-1.727766.879864-3.772234.879864-5.5,0v0c-1.52-.88-1.52-2.3,0-3.18L144.51,69c1.725826-.873241,3.764174-.873241,5.49,0v0c1.54.87,1.54,2.29,0,3.17Z" fill="#f2f8ff"/><path d="M161,78.52L128.37,97.39c-1.731258.880003-3.778742.880003-5.51,0v0c-1.52-.88-1.52-2.3,0-3.18l32.66-18.87c1.730072-.870202,3.769928-.870202,5.5,0v0c1.52.88,1.52,2.31-.02,3.18Z" fill="#f2f8ff"/></g><g id="eYc1sMPWEpj77" transform="matrix(0.455837 0 0 0.421983 227.03046 73.886004)" opacity="0.27"><path d="M153.15,57.64l-46.79,27c-1.730072.870202-3.769928.870202-5.5,0v0c-1.52-.88-1.52-2.31,0-3.18l46.79-27c1.727766-.879864,3.772234-.879864,5.5,0v0c1.52.88,1.52,2.31,0,3.18Z" fill="#f2f8ff"/><path d="M150,72.17L117.36,91c-1.727766.879864-3.772234.879864-5.5,0v0c-1.52-.88-1.52-2.3,0-3.18L144.51,69c1.725826-.873241,3.764174-.873241,5.49,0v0c1.54.87,1.54,2.29,0,3.17Z" fill="#f2f8ff"/><path d="M161,78.52L128.37,97.39c-1.731258.880003-3.778742.880003-5.51,0v0c-1.52-.88-1.52-2.3,0-3.18l32.66-18.87c1.730072-.870202,3.769928-.870202,5.5,0v0c1.52.88,1.52,2.31-.02,3.18Z" fill="#f2f8ff"/></g></g></g></g><script xlink:href="https://cdn.svgator.com/ply/5c7f360c.js?v=2021-10-11" src="https://cdn.svgator.com/ply/5c7f360c.js"/><script><![CDATA[(function(s,i,u,o,c,w,d,t,n,x,e,p){w[o]=w[o]||{};w[o][s]=w[o][s]||[];w[o][s].push(i);e=d.createElementNS(n,t);e.async=true;e.setAttributeNS(x,'href',[u,s,'.','j','s','?','v','=',c].join(''));e.setAttributeNS(null,'src',[u,s,'.','j','s'].join(''));p=d.getElementsByTagName(t)[0];p.parentNode.insertBefore(e,p);})('5c7f360c',{"root":"eYc1sMPWEpj1","animations":[{"elements":{"eYc1sMPWEpj41":{"transform":{"data":{"t":{"x":-245.607435,"y":-109.69}},"keys":{"o":[{"t":0,"v":{"x":237.030278,"y":113.479988,"type":"corner"}},{"t":400,"v":{"x":239.28216,"y":106.79001,"type":"corner"}},{"t":1600,"v":{"x":239.28216,"y":124.109624,"type":"corner"}},{"t":2000,"v":{"x":239.282191,"y":101.360067,"type":"corner"}},{"t":3000,"v":{"x":237.03,"y":113.48,"type":"corner"}}]}}},"eYc1sMPWEpj61":{"transform":{"data":{"o":{"x":130.938747,"y":75.925049,"type":"corner"},"t":{"x":-130.938747,"y":-75.925049}},"keys":{"s":[{"t":0,"v":{"x":1,"y":1}},{"t":1000,"v":{"x":0.335576,"y":0.29424}},{"t":2000,"v":{"x":1,"y":1}}]}}},"eYc1sMPWEpj69":{"transform":{"data":{"o":{"x":205.767787,"y":117.550206,"type":"corner"},"t":{"x":-130.938747,"y":-75.925049}},"keys":{"s":[{"t":0,"v":{"x":1,"y":1}},{"t":1000,"v":{"x":0.335576,"y":0.29424}},{"t":2000,"v":{"x":1,"y":1}}]}}},"eYc1sMPWEpj73":{"transform":{"data":{"o":{"x":286.633755,"y":159.693953,"type":"corner"},"t":{"x":-130.938747,"y":-75.925049}},"keys":{"s":[{"t":0,"v":{"x":1,"y":1}},{"t":1000,"v":{"x":0.335576,"y":0.29424}},{"t":2000,"v":{"x":1,"y":1}}]}}},"eYc1sMPWEpj77":{"transform":{"data":{"o":{"x":286.717157,"y":105.925052,"type":"corner"},"t":{"x":-130.938758,"y":-75.925052}},"keys":{"s":[{"t":0,"v":{"x":1,"y":1}},{"t":1000,"v":{"x":0.335576,"y":0.29424}},{"t":2000,"v":{"x":1,"y":1}}]}}}},"s":"MWDA1MzljNDM4NTk2UTGkzODI5NThhTzkwOGYU0MzViNTQ1MTUxNTE0GZDQzODU4YTkzODY4NDDk1OGE5MDhmNDM1YjUUyNGQ0M0c4YTk1ODYP5MzgyOTU4YTkwOGY5BNDQzNWI1MTRkNDM4NSzhhOGQ4ZDQzNWI1MjNRkNDM4MjhkTTk1ODYX5MzhmODI5NTg2NDM1WYjg3ODI4ZDk0ODY0ZUDQzOTQ5MTg2ODY4NTYQzNWI1Mjll"}],"options":"MVDAxMDg4MmY4MDgxNmVU3ZjgxMmY0NzJmNzkB3Y0Y2ZTcxMmY4YQ|"},'https://cdn.svgator.com/ply/','__SVGATOR_PLAYER__','2021-10-11',window,document,'script','http://www.w3.org/2000/svg','http://www.w3.org/1999/xlink')]]></script></svg>
