<svg xmlns="http://www.w3.org/2000/svg" xmlns:xlink="http://www.w3.org/1999/xlink" viewBox="0 0 436.28 285.79">
<defs><style>.cls-1{fill:#77008f;}.cls-2{fill:#a9a8c6;}.cls-3{fill:#1c1a2a;}.cls-4{fill:#e1dfea;}.cls-5{fill:#7c7ca0;}.cls-6{fill:url(#linear-gradient);}.cls-7{fill:#090000;}.cls-8{fill:#1a2738;}.cls-9{opacity:0.27;}.cls-10{fill:#f2f8ff;}.cls-11{fill:#717f90;}</style>
<link xmlns="http://www.w3.org/1999/xhtml" rel="stylesheet" href="../css/style.css" type="text/css"/>
<linearGradient id="linear-gradient" x1="58.47" y1="105.74" x2="415.57" y2="105.74" gradientUnits="userSpaceOnUse"><stop offset="0" stop-color="#ffc485"/><stop offset="1" stop-color="#d03e3e"/></linearGradient></defs><g id="Layer_2" data-name="Layer 2"><g id="Default"><path class="cls-1" d="M21,247.3c4.81,2.78,4.81,7.29,0,10.06s-12.61,2.78-17.42,0-4.81-7.28,0-10.06S16.22,244.52,21,247.3Z"/><path class="cls-1" d="M357.11,229.35c5.42,3.13,5.42,8.21,0,11.34s-14.21,3.13-19.63,0-5.41-8.21,0-11.34S351.69,226.22,357.11,229.35Z"/><path class="cls-1" d="M154.25,159,79.71,202a9.68,9.68,0,0,1-8.77,0h0c-2.42-1.4-2.42-3.67,0-5.07l74.55-43.06a9.66,9.66,0,0,1,8.76,0h0C156.68,155.31,156.68,157.58,154.25,159Z"/><path class="cls-1" d="M211.84,125.71l-39.39,22.76a9.74,9.74,0,0,1-8.77,0h0c-2.42-1.4-2.42-3.67,0-5.07l39.39-22.76a9.68,9.68,0,0,1,8.77,0h0C214.26,122,214.26,124.31,211.84,125.71Z"/><path class="cls-1" d="M176.35,123.61l-74.54,43.07a9.74,9.74,0,0,1-8.77,0h0c-2.42-1.4-2.42-3.67,0-5.07l74.54-43.06a9.68,9.68,0,0,1,8.77,0h0C178.77,120,178.77,122.21,176.35,123.61Z"/><path class="cls-1" d="M271.67,68.55l-74.54,43.06a9.68,9.68,0,0,1-8.77,0h0c-2.42-1.4-2.42-3.66,0-5.06L262.9,63.48a9.74,9.74,0,0,1,8.77,0h0C274.09,64.88,274.09,67.15,271.67,68.55Z"/><path class="cls-1" d="M314.48,89l-74.54,43.06a9.68,9.68,0,0,1-8.77,0h0c-2.42-1.4-2.42-3.67,0-5.06l74.54-43.07a9.74,9.74,0,0,1,8.77,0h0C316.9,85.34,316.9,87.61,314.48,89Z"/><path class="cls-1" d="M173.81,170.27,152,182.88a9.68,9.68,0,0,1-8.77,0h0c-2.42-1.4-2.42-3.67,0-5.07L165,165.21a9.68,9.68,0,0,1,8.77,0h0C176.23,166.61,176.23,168.87,173.81,170.27Z"/><path class="cls-1" d="M360.88,62.2,339.06,74.81a9.66,9.66,0,0,1-8.76,0h0c-2.43-1.4-2.43-3.67,0-5.07l21.81-12.6a9.68,9.68,0,0,1,8.77,0h0C363.3,58.54,363.3,60.81,360.88,62.2Z"/><path class="cls-1" d="M191.18,92.45l-74.54,43.06a9.68,9.68,0,0,1-8.77,0h0c-2.42-1.39-2.42-3.66,0-5.06l74.54-43.06a9.68,9.68,0,0,1,8.77,0h0C193.6,88.79,193.6,91.05,191.18,92.45Z"/><path class="cls-1" d="M237.58,65.65l-21.82,12.6a9.68,9.68,0,0,1-8.77,0h0c-2.42-1.4-2.42-3.66,0-5.06l21.82-12.61a9.68,9.68,0,0,1,8.77,0h0C240,62,240,64.25,237.58,65.65Z"/><path class="cls-1" d="M274.23,241.68l-74.54,43.06a9.68,9.68,0,0,1-8.77,0h0c-2.42-1.4-2.42-3.67,0-5.06l74.54-43.07a9.74,9.74,0,0,1,8.77,0h0C276.65,238,276.65,240.28,274.23,241.68Z"/><path class="cls-1" d="M331.82,208.41l-39.4,22.76a9.66,9.66,0,0,1-8.76,0h0c-2.43-1.4-2.43-3.67,0-5.07l39.39-22.75a9.68,9.68,0,0,1,8.77,0h0C334.24,204.75,334.24,207,331.82,208.41Z"/><path class="cls-1" d="M296.33,206.32l-74.54,43.06a9.68,9.68,0,0,1-8.77,0h0c-2.42-1.4-2.42-3.67,0-5.07l74.54-43.06a9.68,9.68,0,0,1,8.77,0h0C298.75,202.65,298.75,204.92,296.33,206.32Z"/><path class="cls-1" d="M391.65,151.25l-74.54,43.07a9.68,9.68,0,0,1-8.77,0h0c-2.42-1.4-2.42-3.67,0-5.07l74.54-43.06a9.68,9.68,0,0,1,8.77,0h0C394.07,147.59,394.07,149.86,391.65,151.25Z"/><path class="cls-1" d="M434.46,171.71l-74.54,43.07a9.74,9.74,0,0,1-8.77,0h0c-2.42-1.4-2.42-3.67,0-5.07l74.54-43.06a9.68,9.68,0,0,1,8.77,0h0C436.88,168.05,436.88,170.32,434.46,171.71Z"/><path class="cls-1" d="M293.79,253,272,265.58a9.68,9.68,0,0,1-8.77,0h0c-2.42-1.4-2.42-3.67,0-5.06L285,247.91a9.68,9.68,0,0,1,8.77,0h0C296.21,249.31,296.21,251.58,293.79,253Z"/><path class="cls-1" d="M311.16,175.16l-74.54,43.06a9.68,9.68,0,0,1-8.77,0h0c-2.42-1.4-2.42-3.67,0-5.07l74.54-43.06a9.68,9.68,0,0,1,8.77,0h0C313.58,171.49,313.58,173.76,311.16,175.16Z"/><path class="cls-1" d="M357.56,148.35,335.74,161a9.68,9.68,0,0,1-8.77,0h0c-2.42-1.4-2.42-3.67,0-5.07l21.82-12.6a9.68,9.68,0,0,1,8.77,0h0C360,144.69,360,147,357.56,148.35Z"/><path class="cls-1" d="M223.1,184.82l-74.55,43.06a9.68,9.68,0,0,1-8.77,0h0c-2.42-1.4-2.42-3.66,0-5.06l74.55-43.06a9.68,9.68,0,0,1,8.77,0h0C225.52,181.15,225.52,183.42,223.1,184.82Z"/><path class="cls-1" d="M280.68,151.55l-39.39,22.76a9.68,9.68,0,0,1-8.77,0h0c-2.42-1.4-2.42-3.66,0-5.06l39.39-22.76a9.68,9.68,0,0,1,8.77,0h0C283.1,147.89,283.1,150.16,280.68,151.55Z"/><path class="cls-1" d="M245.19,149.46l-74.54,43.06a9.68,9.68,0,0,1-8.77,0h0c-2.42-1.4-2.42-3.67,0-5.06l74.55-43.07a9.72,9.72,0,0,1,8.76,0h0C247.62,145.79,247.62,148.06,245.19,149.46Z"/><path class="cls-1" d="M340.51,94.4,266,137.46a9.68,9.68,0,0,1-8.77,0h0c-2.42-1.4-2.42-3.67,0-5.07l74.54-43.06a9.68,9.68,0,0,1,8.77,0h0C342.93,90.73,342.93,93,340.51,94.4Z"/><path class="cls-1" d="M383.32,114.86l-74.54,43.06a9.68,9.68,0,0,1-8.77,0h0c-2.42-1.4-2.42-3.67,0-5.07l74.55-43.06a9.66,9.66,0,0,1,8.76,0h0C385.74,111.19,385.74,113.46,383.32,114.86Z"/><path class="cls-1" d="M242.65,196.12l-21.82,12.6a9.66,9.66,0,0,1-8.76,0h0c-2.43-1.4-2.43-3.66,0-5.06l21.81-12.61a9.68,9.68,0,0,1,8.77,0h0C245.07,192.45,245.07,194.72,242.65,196.12Z"/><path class="cls-1" d="M429.72,88.05l-21.81,12.6a9.68,9.68,0,0,1-8.77,0h0c-2.42-1.39-2.42-3.66,0-5.06L421,83a9.66,9.66,0,0,1,8.76,0h0C432.15,84.38,432.15,86.65,429.72,88.05Z"/><path class="cls-1" d="M260,118.3l-74.54,43.06a9.68,9.68,0,0,1-8.77,0h0c-2.42-1.4-2.42-3.67,0-5.06l74.54-43.07a9.68,9.68,0,0,1,8.77,0h0C262.44,114.63,262.44,116.9,260,118.3Z"/><path class="cls-1" d="M306.42,91.49,284.6,104.1a9.66,9.66,0,0,1-8.76,0h0c-2.42-1.4-2.42-3.67,0-5.07l21.82-12.6a9.66,9.66,0,0,1,8.76,0h0C308.85,87.83,308.85,90.09,306.42,91.49Z"/><path class="cls-1" d="M82.77,133.68,12.24,174.42a9.11,9.11,0,0,1-8.29,0H4c-2.29-1.32-2.29-3.47,0-4.79l70.52-40.74a9.19,9.19,0,0,1,8.3,0h0C85.06,130.21,85.06,132.36,82.77,133.68Z"/><path class="cls-1" d="M137.25,102.21,100,123.74a9.19,9.19,0,0,1-8.3,0h0c-2.29-1.32-2.29-3.47,0-4.79L129,97.42a9.19,9.19,0,0,1,8.3,0h0C139.54,98.74,139.54,100.89,137.25,102.21Z"/><path class="cls-1" d="M103.67,100.23,33.15,141a9.17,9.17,0,0,1-8.29,0h0c-2.29-1.33-2.29-3.47,0-4.79L95.38,95.44a9.11,9.11,0,0,1,8.29,0h0C106,96.76,106,98.91,103.67,100.23Z"/><path class="cls-1" d="M193.85,48.13,123.33,88.87a9.13,9.13,0,0,1-8.3,0h0c-2.29-1.32-2.29-3.46,0-4.79l70.53-40.74a9.17,9.17,0,0,1,8.29,0h0C196.14,44.67,196.14,46.81,193.85,48.13Z"/><path class="cls-1" d="M234.35,67.49l-70.52,40.74a9.17,9.17,0,0,1-8.29,0h0c-2.29-1.32-2.29-3.47,0-4.79L226.06,62.7a9.17,9.17,0,0,1,8.29,0h0C236.64,64,236.64,66.17,234.35,67.49Z"/><path class="cls-1" d="M101.27,144.37,80.63,156.3a9.19,9.19,0,0,1-8.3,0h0c-2.29-1.33-2.29-3.47,0-4.8L93,139.58a9.19,9.19,0,0,1,8.3,0h0C103.56,140.9,103.56,143.05,101.27,144.37Z"/><path class="cls-1" d="M278.25,42.13,257.61,54.06a9.17,9.17,0,0,1-8.29,0h0c-2.3-1.33-2.3-3.47,0-4.8L270,37.34a9.17,9.17,0,0,1,8.29,0h0C280.54,38.66,280.54,40.81,278.25,42.13Z"/><path class="cls-1" d="M117.7,70.75,47.18,111.49a9.17,9.17,0,0,1-8.29,0h0c-2.3-1.33-2.3-3.47,0-4.79L109.41,66a9.11,9.11,0,0,1,8.29,0h0C120,67.28,120,69.42,117.7,70.75Z"/><path class="cls-1" d="M161.6,45.39,141,57.31a9.13,9.13,0,0,1-8.3,0h0c-2.29-1.32-2.29-3.47,0-4.79L153.31,40.6a9.11,9.11,0,0,1,8.29,0h0C163.89,41.92,163.89,44.07,161.6,45.39Z"/><path class="cls-2" d="M56.18,78.86a16.15,16.15,0,0,0,4.78,4L276.72,207.44a27.45,27.45,0,0,0,8.11,3.11,43.15,43.15,0,0,0,8.73.93,33.86,33.86,0,0,0,16.86-4l102.67-59.3c2.9-1.67,6.05-4.56,6.8-7.82a7.74,7.74,0,0,0,.18-1.66V154c0,4.2-3.25,7.58-7,9.73L310.42,223a27.43,27.43,0,0,1-8.11,3.1c-8.33,1.78-18.25,1.14-25.59-3.1L61,98.37a22.69,22.69,0,0,1-2.71-1.84c-2.34-1.85-4.26-5-4.26-8h0V73.07h0A10.27,10.27,0,0,0,56.18,78.86Z"/><path class="cls-3" d="M370.44,177.55a1.85,1.85,0,0,1,1.71-.22A1.72,1.72,0,0,1,373,179v1.09a5.62,5.62,0,0,1-2.54,4.39l-17.36,10a1.55,1.55,0,0,1-2.54-1.46V192a5.6,5.6,0,0,1,2.54-4.38Z"/><path class="cls-3" d="M331.89,199.54c2.42-2.45,4.74-1.48,4.67,1.06-.1,3.81-3.87,7.53-5.92,6.25a2.16,2.16,0,0,1-.7-.76,3.2,3.2,0,0,1-.27-2,7.65,7.65,0,0,1,.71-2.4,0,0,0,0,1,0,0,7.77,7.77,0,0,0,.54-.93A7.43,7.43,0,0,1,331.89,199.54Z"/><path class="cls-4" d="M60.38,77.9c1.77,2.14,3.19,2.71,9.4,6.34.11.07,210.25,121.5,211.35,122a29,29,0,0,0,12.45,2.62l0,2.59a43.15,43.15,0,0,1-8.73-.93,27.45,27.45,0,0,1-8.11-3.11L61,82.82a16.15,16.15,0,0,1-4.78-4A10.27,10.27,0,0,1,54,73.07a6.8,6.8,0,0,1,.17-1.91c.76-3.26,3.9-6.15,6.8-7.82L163.63,4a33.92,33.92,0,0,1,16.85-4l0,2.59a32.47,32.47,0,0,0-6.64.68c-4.44.95-6.59,2.3-9.9,4.28s7.63-4.47-38.54,22.2c-7.51,4.34-15,8.76-22.5,13.1s-15.06,8.58-22.56,13c-3.12,1.83-6.24,3.69-9.37,5.46a84.6,84.6,0,0,0-8.84,5.28C58.2,69.69,57.17,74.05,60.38,77.9Z"/><polygon class="cls-4" points="112.15 120.62 113.87 119.63 94.94 108.69 93.22 109.69 112.15 120.62"/><polygon class="cls-5" points="113.87 122.02 113.87 119.63 112.15 120.62 112.15 123.01 113.87 122.02"/><polygon class="cls-5" points="112.15 123.01 112.15 120.62 93.22 109.69 93.22 112.08 112.15 123.01"/><path class="cls-3" d="M320.82,209.63h0a1.44,1.44,0,0,0,.66-1.13h0c0-.4-.29-.56-.66-.35h0a1.45,1.45,0,0,0-.67,1.12h0C320.15,209.68,320.45,209.84,320.82,209.63Z"/><path class="cls-3" d="M407.59,163.1h0a2.28,2.28,0,0,0,1-1.75v-4.92c0-.63-.47-.88-1-.55h0a2.27,2.27,0,0,0-1,1.75v4.92C406.55,163.18,407,163.43,407.59,163.1Z"/><path class="cls-3" d="M403.46,165.48h0a2.25,2.25,0,0,0,1-1.74v-4.92c0-.63-.47-.88-1-.55h0a2.25,2.25,0,0,0-1,1.74v4.92C402.42,165.56,402.89,165.81,403.46,165.48Z"/><path class="cls-3" d="M399.33,167.87h0a2.27,2.27,0,0,0,1-1.75v-4.91c0-.64-.47-.88-1-.56h0a2.27,2.27,0,0,0-1,1.75v4.92C398.29,168,398.76,168.2,399.33,167.87Z"/><path class="cls-3" d="M395.2,170.26h0a2.28,2.28,0,0,0,1-1.75v-4.92c0-.63-.47-.88-1-.55h0a2.25,2.25,0,0,0-1,1.74v4.92C394.16,170.33,394.63,170.58,395.2,170.26Z"/><path class="cls-3" d="M391.07,172.64h0a2.27,2.27,0,0,0,1-1.74V166c0-.63-.47-.88-1-.55h0a2.23,2.23,0,0,0-1,1.74v4.92C390,172.72,390.5,173,391.07,172.64Z"/><path class="cls-3" d="M386.94,175h0a2.28,2.28,0,0,0,1-1.75v-4.92c0-.63-.47-.88-1-.55h0a2.25,2.25,0,0,0-1,1.75v4.92C385.9,175.11,386.37,175.35,386.94,175Z"/><path class="cls-4" d="M413.09,148.14l-102.67,59.3a33.86,33.86,0,0,1-16.86,4l0-2.59a29.84,29.84,0,0,0,11.31-2.12,38.62,38.62,0,0,0,5.24-2.84c3.35-2-7.63,4.47,38.54-22.2,7.51-4.34,15-8.76,22.5-13.1s15.07-8.58,22.56-13c3.12-1.83,6.24-3.68,9.39-5.46,6.21-3.5,9.14-4.86,11.06-7.63,2.52-3.61,1.94-8.39-4.27-12.06-.24-.15-216-124.82-217-125.3a29.16,29.16,0,0,0-12.46-2.62l0-2.59a43.33,43.33,0,0,1,8.74.93A27.79,27.79,0,0,1,197.35,4L413.09,128.67a16,16,0,0,1,4.79,4,10.16,10.16,0,0,1,2.19,6,7.74,7.74,0,0,1-.18,1.66C419.14,143.58,416,146.47,413.09,148.14Z"/><path class="cls-4" d="M196.9,7.5c-2.51-1.45-3.91-2.26-4-2.29a29.17,29.17,0,0,0-12.47-2.62,32.46,32.46,0,0,0-6.63.69c-4.45.94-6.6,2.29-9.9,4.27-3.11,1.88,6.17-3.6-29.71,17.09l-8.84,5.11c-7.51,4.35-15,8.77-22.49,13.1q-3.09,1.78-6.19,3.54c-5.46,3.13-10.93,6.24-16.38,9.43-3.12,1.84-6.23,3.69-9.37,5.46a85.69,85.69,0,0,0-8.84,5.28c-3.91,3.14-4.94,7.49-1.73,11.35,1.77,2.13,3.19,2.7,9.4,6.33L161,137c56.92,32.87,119.5,69,120.11,69.31a28.82,28.82,0,0,0,12.45,2.62,29.78,29.78,0,0,0,11.3-2.11,38,38,0,0,0,5.23-2.85c3.36-2-7.62,4.47,38.55-22.19,7.51-4.35,15-8.77,22.5-13.11s15.07-8.58,22.57-13c3.11-1.83,6.23-3.68,9.37-5.46,6.23-3.49,9.15-4.86,11.07-7.63,2.43-3.48,2-8-3.57-11.62-.23-.16-.46-.3-.7-.44S226.42,24.48,196.9,7.5Z"/><path class="cls-6" d="M410.6,131c5.55,3.6,6,8.14,3.57,11.62-1.92,2.77-4.84,4.14-11.07,7.63-3.14,1.78-6.26,3.63-9.37,5.46-7.5,4.39-15.05,8.64-22.57,13s-15,8.76-22.5,13.11c-46.17,26.66-35.19,20.18-38.55,22.19a38,38,0,0,1-5.23,2.85c-7.22,3-17.09,2.76-23.75-.51-1-.48-183.73-106.07-211.36-122-6.21-3.63-7.63-4.2-9.4-6.33-3.21-3.86-2.18-8.21,1.73-11.35,2.13-1.7,98.82-57.2,101.82-59,3.3-2,5.45-3.33,9.9-4.27,6.8-1.45,14.09-.51,19.1,1.93C193.05,5.27,187.2,1.89,410.6,131Z"/><path class="cls-7" d="M129.78,32.76a3.63,3.63,0,0,1,3.36,0l1.25.71L111.54,46.68a3.76,3.76,0,0,1-3.38,0L106.92,46Z"/><path class="cls-8" d="M133.14,30.43l1.58.91a1,1,0,0,1,0,1.94l-.33.19-1.25-.71a3.63,3.63,0,0,0-3.36,0L106.92,46l-.33-.2a1.22,1.22,0,0,1-.7-.95v0a1.17,1.17,0,0,1,.7-1l23.19-13.39A3.66,3.66,0,0,1,133.14,30.43Z"/><g class="cls-9">
<path class="cls-10" stroke="#bc85ff" stroke-miterlimit="10" stroke-width="2" d="M153.15,57.64l-46.79,27a6.12,6.12,0,0,1-5.5,0h0c-1.52-.88-1.52-2.31,0-3.18l46.79-27a6.06,6.06,0,0,1,5.5,0h0C154.67,55.34,154.67,56.77,153.15,57.64Z"/><path class="cls-10" stroke="#bc85ff" stroke-miterlimit="10" stroke-width="1" d="M150,72.17,117.36,91a6.06,6.06,0,0,1-5.5,0h0c-1.52-.88-1.52-2.3,0-3.18L144.51,69A6.08,6.08,0,0,1,150,69h0C151.54,69.87,151.54,71.29,150,72.17Z"/><path class="cls-10" stroke="#bc85ff" stroke-miterlimit="10" stroke-width="1" d="M161,78.52,128.37,97.39a6.08,6.08,0,0,1-5.51,0h0c-1.52-.88-1.52-2.3,0-3.18l32.66-18.87a6.12,6.12,0,0,1,5.5,0h0C162.54,76.22,162.54,77.65,161,78.52Z"/></g><g class="cls-9">
<path class="cls-10" stroke="#bc85ff" stroke-miterlimit="10" stroke-width="2" d="M225.06,103l-46.79,27a6.14,6.14,0,0,1-5.51,0h0c-1.52-.88-1.52-2.3,0-3.18l46.8-27a6.06,6.06,0,0,1,5.5,0h0C226.58,100.73,226.58,102.16,225.06,103Z"/><path class="cls-10" stroke="#bc85ff" stroke-miterlimit="10" stroke-width="1" d="M221.93,117.56l-32.66,18.86a6.06,6.06,0,0,1-5.5,0h0c-1.52-.88-1.52-2.3,0-3.18l32.65-18.86a6.08,6.08,0,0,1,5.51,0h0C223.45,115.26,223.45,116.68,221.93,117.56Z"/><path class="cls-10" stroke="#bc85ff" stroke-miterlimit="10" stroke-width="1" d="M232.93,123.91l-32.66,18.87a6.06,6.06,0,0,1-5.5,0h0c-1.52-.88-1.52-2.3,0-3.18l32.66-18.87a6.12,6.12,0,0,1,5.5,0h0C234.45,121.61,234.45,123,232.93,123.91Z"/></g><g class="cls-9">
<path class="cls-10" stroke="#bc85ff" stroke-miterlimit="10" stroke-width="2" d="M320.87,90l-46.8,27a6.06,6.06,0,0,1-5.5,0h0c-1.52-.88-1.52-2.3,0-3.18l46.79-27a6.08,6.08,0,0,1,5.51,0h0C322.39,87.73,322.39,89.15,320.87,90Z"/><path class="cls-10" stroke="#bc85ff" stroke-miterlimit="10" stroke-width="1" d="M317.73,104.55l-32.65,18.87a6.14,6.14,0,0,1-5.51,0h0c-1.52-.88-1.52-2.31,0-3.18l32.66-18.87a6.06,6.06,0,0,1,5.5,0h0C319.25,102.25,319.25,103.67,317.73,104.55Z"/><path class="cls-10" stroke="#bc85ff" stroke-miterlimit="10" stroke-width="1" d="M328.73,110.91l-32.65,18.86a6.08,6.08,0,0,1-5.51,0h0c-1.52-.88-1.52-2.3,0-3.18l32.66-18.86a6.06,6.06,0,0,1,5.5,0h0C330.25,108.61,330.25,110,328.73,110.91Z"/></g><g class="cls-9">
<path class="cls-10" stroke="#bc85ff" stroke-miterlimit="10" stroke-width="2" d="M310.83,150.14l-46.8,27a6.06,6.06,0,0,1-5.5,0h0c-1.52-.88-1.52-2.3,0-3.18l46.79-27a6.08,6.08,0,0,1,5.51,0h0C312.35,147.84,312.35,149.26,310.83,150.14Z"/><path class="cls-10" stroke="#bc85ff" stroke-miterlimit="10" stroke-width="1" d="M307.69,164.66,275,183.53a6.14,6.14,0,0,1-5.51,0h0c-1.52-.88-1.52-2.31,0-3.18l32.66-18.87a6.06,6.06,0,0,1,5.5,0h0C309.21,162.36,309.21,163.78,307.69,164.66Z"/><path class="cls-10" stroke="#bc85ff" stroke-miterlimit="10" stroke-width="1" d="M318.7,171,286,189.88a6.06,6.06,0,0,1-5.5,0h0c-1.52-.88-1.52-2.3,0-3.18l32.65-18.86a6.08,6.08,0,0,1,5.51,0h0C320.22,168.72,320.22,170.14,318.7,171Z"/></g><g class="cls-9"><path class="cls-11" d="M244.43,44.31l-46.79,27a6.12,6.12,0,0,1-5.5,0h0c-1.52-.88-1.52-2.3,0-3.18l46.79-27a6.06,6.06,0,0,1,5.5,0h0C246,42,246,43.43,244.43,44.31Z"/><path class="cls-11" d="M241.3,58.83,208.65,77.69a6.08,6.08,0,0,1-5.51,0h0c-1.52-.88-1.52-2.3,0-3.18L235.8,55.65a6.06,6.06,0,0,1,5.5,0h0C242.82,56.53,242.82,58,241.3,58.83Z"/><path class="cls-11" d="M252.3,65.18,219.65,84.05a6.08,6.08,0,0,1-5.51,0h0c-1.52-.88-1.52-2.3,0-3.18L246.8,62a6.12,6.12,0,0,1,5.5,0h0C253.82,62.88,253.82,64.31,252.3,65.18Z"/></g></g></g></svg>
